<svg width="320" height="255" viewBox="0 0 320 255" fill="none" xmlns="http://www.w3.org/2000/svg">
<g clip-path="url(#clip0)">
<path opacity="0.1" d="M91.652 43.7335H67.7196C66.3392 43.7335 65.2201 44.8526 65.2201 46.2331V49.9807C65.2201 51.3611 66.3392 52.4802 67.7196 52.4802H91.652C93.0324 52.4802 94.1515 51.3611 94.1515 49.9807V46.2331C94.1515 44.8526 93.0324 43.7335 91.652 43.7335Z" fill="#2B3280"/>
<path opacity="0.1" d="M121.929 52.4802H97.9966C96.6161 52.4802 95.4971 53.5993 95.4971 54.9798V58.7274C95.4971 60.1078 96.6161 61.2269 97.9966 61.2269H121.929C123.309 61.2269 124.428 60.1078 124.428 58.7274V54.9798C124.428 53.5993 123.309 52.4802 121.929 52.4802Z" fill="#2B3280"/>
<path opacity="0.1" d="M152.206 61.2269H128.274C126.893 61.2269 125.774 62.346 125.774 63.7265V67.4741C125.774 68.8545 126.893 69.9736 128.274 69.9736H152.206C153.586 69.9736 154.706 68.8545 154.706 67.4741V63.7265C154.706 62.346 153.586 61.2269 152.206 61.2269Z" fill="#2B3280"/>
<path opacity="0.1" d="M91.652 30.6134H67.7196C66.3392 30.6134 65.2201 31.7325 65.2201 33.1129V36.8606C65.2201 38.241 66.3392 39.3601 67.7196 39.3601H91.652C93.0324 39.3601 94.1515 38.241 94.1515 36.8606V33.1129C94.1515 31.7325 93.0324 30.6134 91.652 30.6134Z" fill="#2B3280"/>
<path opacity="0.1" d="M121.929 39.3601H97.9966C96.6161 39.3601 95.4971 40.4792 95.4971 41.8596V45.6073C95.4971 46.9877 96.6161 48.1068 97.9966 48.1068H121.929C123.309 48.1068 124.428 46.9877 124.428 45.6073V41.8596C124.428 40.4792 123.309 39.3601 121.929 39.3601Z" fill="#2B3280"/>
<path opacity="0.1" d="M152.206 48.1068H128.274C126.893 48.1068 125.774 49.2259 125.774 50.6063V54.354C125.774 55.7344 126.893 56.8535 128.274 56.8535H152.206C153.586 56.8535 154.706 55.7344 154.706 54.354V50.6063C154.706 49.2259 153.586 48.1068 152.206 48.1068Z" fill="#2B3280"/>
<path opacity="0.1" d="M185.847 43.7335H161.915C160.534 43.7335 159.415 44.8526 159.415 46.2331V49.9807C159.415 51.3611 160.534 52.4802 161.915 52.4802H185.847C187.228 52.4802 188.347 51.3611 188.347 49.9807V46.2331C188.347 44.8526 187.228 43.7335 185.847 43.7335Z" fill="#2B3280"/>
<path opacity="0.1" d="M216.124 52.4802H192.192C190.811 52.4802 189.692 53.5993 189.692 54.9798V58.7274C189.692 60.1078 190.811 61.2269 192.192 61.2269H216.124C217.505 61.2269 218.624 60.1078 218.624 58.7274V54.9798C218.624 53.5993 217.505 52.4802 216.124 52.4802Z" fill="#2B3280"/>
<path opacity="0.1" d="M246.401 61.2269H222.469C221.089 61.2269 219.969 62.346 219.969 63.7265V67.4741C219.969 68.8545 221.089 69.9736 222.469 69.9736H246.401C247.782 69.9736 248.901 68.8545 248.901 67.4741V63.7265C248.901 62.346 247.782 61.2269 246.401 61.2269Z" fill="#2B3280"/>
<path opacity="0.1" d="M185.847 30.6134H161.915C160.534 30.6134 159.415 31.7325 159.415 33.1129V36.8606C159.415 38.241 160.534 39.3601 161.915 39.3601H185.847C187.228 39.3601 188.347 38.241 188.347 36.8606V33.1129C188.347 31.7325 187.228 30.6134 185.847 30.6134Z" fill="#2B3280"/>
<path opacity="0.1" d="M216.124 39.3601H192.192C190.811 39.3601 189.692 40.4792 189.692 41.8596V45.6073C189.692 46.9877 190.811 48.1068 192.192 48.1068H216.124C217.505 48.1068 218.624 46.9877 218.624 45.6073V41.8596C218.624 40.4792 217.505 39.3601 216.124 39.3601Z" fill="#2B3280"/>
<path opacity="0.1" d="M246.401 48.1068H222.469C221.089 48.1068 219.969 49.2259 219.969 50.6063V54.354C219.969 55.7344 221.089 56.8535 222.469 56.8535H246.401C247.782 56.8535 248.901 55.7344 248.901 54.354V50.6063C248.901 49.2259 247.782 48.1068 246.401 48.1068Z" fill="#2B3280"/>
<path opacity="0.1" d="M91.652 13.12H67.7196C66.3392 13.12 65.2201 14.2391 65.2201 15.6195V19.3672C65.2201 20.7476 66.3392 21.8667 67.7196 21.8667H91.652C93.0324 21.8667 94.1515 20.7476 94.1515 19.3672V15.6195C94.1515 14.2391 93.0324 13.12 91.652 13.12Z" fill="#2B3280"/>
<path opacity="0.1" d="M121.929 21.8667H97.9966C96.6161 21.8667 95.4971 22.9858 95.4971 24.3662V28.1139C95.4971 29.4943 96.6161 30.6134 97.9966 30.6134H121.929C123.309 30.6134 124.428 29.4943 124.428 28.1139V24.3662C124.428 22.9858 123.309 21.8667 121.929 21.8667Z" fill="#2B3280"/>
<path opacity="0.1" d="M152.206 30.6134H128.274C126.893 30.6134 125.774 31.7325 125.774 33.1129V36.8606C125.774 38.241 126.893 39.3601 128.274 39.3601H152.206C153.586 39.3601 154.706 38.241 154.706 36.8606V33.1129C154.706 31.7325 153.586 30.6134 152.206 30.6134Z" fill="#2B3280"/>
<path opacity="0.1" d="M91.652 0H67.7196C66.3392 0 65.2201 1.11908 65.2201 2.49954V6.24716C65.2201 7.62762 66.3392 8.7467 67.7196 8.7467H91.652C93.0324 8.7467 94.1515 7.62762 94.1515 6.24716V2.49954C94.1515 1.11908 93.0324 0 91.652 0Z" fill="#2B3280"/>
<path opacity="0.1" d="M121.929 8.7467H97.9966C96.6161 8.7467 95.4971 9.86579 95.4971 11.2462V14.9939C95.4971 16.3743 96.6161 17.4934 97.9966 17.4934H121.929C123.309 17.4934 124.428 16.3743 124.428 14.9939V11.2462C124.428 9.86579 123.309 8.7467 121.929 8.7467Z" fill="#2B3280"/>
<path opacity="0.1" d="M152.206 17.4934H128.274C126.893 17.4934 125.774 18.6125 125.774 19.9929V23.7406C125.774 25.121 126.893 26.2401 128.274 26.2401H152.206C153.586 26.2401 154.706 25.121 154.706 23.7406V19.9929C154.706 18.6125 153.586 17.4934 152.206 17.4934Z" fill="#2B3280"/>
<path opacity="0.1" d="M185.847 13.12H161.915C160.534 13.12 159.415 14.2391 159.415 15.6195V19.3672C159.415 20.7476 160.534 21.8667 161.915 21.8667H185.847C187.228 21.8667 188.347 20.7476 188.347 19.3672V15.6195C188.347 14.2391 187.228 13.12 185.847 13.12Z" fill="#2B3280"/>
<path opacity="0.1" d="M216.124 21.8667H192.192C190.811 21.8667 189.692 22.9858 189.692 24.3662V28.1139C189.692 29.4943 190.811 30.6134 192.192 30.6134H216.124C217.505 30.6134 218.624 29.4943 218.624 28.1139V24.3662C218.624 22.9858 217.505 21.8667 216.124 21.8667Z" fill="#2B3280"/>
<path opacity="0.1" d="M246.401 30.6134H222.469C221.089 30.6134 219.969 31.7325 219.969 33.1129V36.8606C219.969 38.241 221.089 39.3601 222.469 39.3601H246.401C247.782 39.3601 248.901 38.241 248.901 36.8606V33.1129C248.901 31.7325 247.782 30.6134 246.401 30.6134Z" fill="#2B3280"/>
<path opacity="0.1" d="M185.847 0H161.915C160.534 0 159.415 1.11908 159.415 2.49954V6.24716C159.415 7.62762 160.534 8.7467 161.915 8.7467H185.847C187.228 8.7467 188.347 7.62762 188.347 6.24716V2.49954C188.347 1.11908 187.228 0 185.847 0Z" fill="#2B3280"/>
<path opacity="0.1" d="M216.124 8.7467H192.192C190.811 8.7467 189.692 9.86579 189.692 11.2462V14.9939C189.692 16.3743 190.811 17.4934 192.192 17.4934H216.124C217.505 17.4934 218.624 16.3743 218.624 14.9939V11.2462C218.624 9.86579 217.505 8.7467 216.124 8.7467Z" fill="#2B3280"/>
<path opacity="0.1" d="M246.401 17.4934H222.469C221.089 17.4934 219.969 18.6125 219.969 19.9929V23.7406C219.969 25.121 221.089 26.2401 222.469 26.2401H246.401C247.782 26.2401 248.901 25.121 248.901 23.7406V19.9929C248.901 18.6125 247.782 17.4934 246.401 17.4934Z" fill="#2B3280"/>
<path opacity="0.1" d="M91.652 199.492H67.7196C66.3392 199.492 65.2201 200.611 65.2201 201.992V205.739C65.2201 207.12 66.3392 208.239 67.7196 208.239H91.652C93.0324 208.239 94.1515 207.12 94.1515 205.739V201.992C94.1515 200.611 93.0324 199.492 91.652 199.492Z" fill="#2B3280"/>
<path opacity="0.1" d="M121.929 208.239H97.9966C96.6161 208.239 95.4971 209.358 95.4971 210.738V214.486C95.4971 215.866 96.6161 216.985 97.9966 216.985H121.929C123.309 216.985 124.428 215.866 124.428 214.486V210.738C124.428 209.358 123.309 208.239 121.929 208.239Z" fill="#2B3280"/>
<path opacity="0.1" d="M152.206 216.985H128.274C126.893 216.985 125.774 218.105 125.774 219.485V223.233C125.774 224.613 126.893 225.732 128.274 225.732H152.206C153.586 225.732 154.706 224.613 154.706 223.233V219.485C154.706 218.105 153.586 216.985 152.206 216.985Z" fill="#2B3280"/>
<path opacity="0.1" d="M91.652 186.372H67.7196C66.3392 186.372 65.2201 187.491 65.2201 188.872V192.619C65.2201 194 66.3392 195.119 67.7196 195.119H91.652C93.0324 195.119 94.1515 194 94.1515 192.619V188.872C94.1515 187.491 93.0324 186.372 91.652 186.372Z" fill="#2B3280"/>
<path opacity="0.1" d="M121.929 195.119H97.9966C96.6161 195.119 95.4971 196.238 95.4971 197.618V201.366C95.4971 202.746 96.6161 203.865 97.9966 203.865H121.929C123.309 203.865 124.428 202.746 124.428 201.366V197.618C124.428 196.238 123.309 195.119 121.929 195.119Z" fill="#2B3280"/>
<path opacity="0.1" d="M152.206 203.865H128.274C126.893 203.865 125.774 204.985 125.774 206.365V210.113C125.774 211.493 126.893 212.612 128.274 212.612H152.206C153.586 212.612 154.706 211.493 154.706 210.113V206.365C154.706 204.985 153.586 203.865 152.206 203.865Z" fill="#2B3280"/>
<path opacity="0.1" d="M185.847 199.492H161.915C160.534 199.492 159.415 200.611 159.415 201.992V205.739C159.415 207.12 160.534 208.239 161.915 208.239H185.847C187.228 208.239 188.347 207.12 188.347 205.739V201.992C188.347 200.611 187.228 199.492 185.847 199.492Z" fill="#2B3280"/>
<path opacity="0.1" d="M216.124 208.239H192.192C190.811 208.239 189.692 209.358 189.692 210.738V214.486C189.692 215.866 190.811 216.985 192.192 216.985H216.124C217.505 216.985 218.624 215.866 218.624 214.486V210.738C218.624 209.358 217.505 208.239 216.124 208.239Z" fill="#2B3280"/>
<path opacity="0.1" d="M246.401 216.985H222.469C221.089 216.985 219.969 218.105 219.969 219.485V223.233C219.969 224.613 221.089 225.732 222.469 225.732H246.401C247.782 225.732 248.901 224.613 248.901 223.233V219.485C248.901 218.105 247.782 216.985 246.401 216.985Z" fill="#2B3280"/>
<path opacity="0.1" d="M185.847 186.372H161.915C160.534 186.372 159.415 187.491 159.415 188.872V192.619C159.415 194 160.534 195.119 161.915 195.119H185.847C187.228 195.119 188.347 194 188.347 192.619V188.872C188.347 187.491 187.228 186.372 185.847 186.372Z" fill="#2B3280"/>
<path opacity="0.1" d="M216.124 195.119H192.192C190.811 195.119 189.692 196.238 189.692 197.618V201.366C189.692 202.746 190.811 203.865 192.192 203.865H216.124C217.505 203.865 218.624 202.746 218.624 201.366V197.618C218.624 196.238 217.505 195.119 216.124 195.119Z" fill="#2B3280"/>
<path opacity="0.1" d="M246.401 203.865H222.469C221.089 203.865 219.969 204.985 219.969 206.365V210.113C219.969 211.493 221.089 212.612 222.469 212.612H246.401C247.782 212.612 248.901 211.493 248.901 210.113V206.365C248.901 204.985 247.782 203.865 246.401 203.865Z" fill="#2B3280"/>
<path opacity="0.1" d="M91.652 168.879H67.7196C66.3392 168.879 65.2201 169.998 65.2201 171.378V175.126C65.2201 176.506 66.3392 177.625 67.7196 177.625H91.652C93.0324 177.625 94.1515 176.506 94.1515 175.126V171.378C94.1515 169.998 93.0324 168.879 91.652 168.879Z" fill="#2B3280"/>
<path opacity="0.1" d="M121.929 177.625H97.9966C96.6161 177.625 95.4971 178.744 95.4971 180.125V183.873C95.4971 185.253 96.6161 186.372 97.9966 186.372H121.929C123.309 186.372 124.428 185.253 124.428 183.873V180.125C124.428 178.744 123.309 177.625 121.929 177.625Z" fill="#2B3280"/>
<path opacity="0.1" d="M152.206 186.372H128.274C126.893 186.372 125.774 187.491 125.774 188.872V192.619C125.774 194 126.893 195.119 128.274 195.119H152.206C153.586 195.119 154.706 194 154.706 192.619V188.872C154.706 187.491 153.586 186.372 152.206 186.372Z" fill="#2B3280"/>
<path opacity="0.1" d="M91.652 155.759H67.7196C66.3392 155.759 65.2201 156.878 65.2201 158.258V162.006C65.2201 163.386 66.3392 164.505 67.7196 164.505H91.652C93.0324 164.505 94.1515 163.386 94.1515 162.006V158.258C94.1515 156.878 93.0324 155.759 91.652 155.759Z" fill="#2B3280"/>
<path opacity="0.1" d="M121.929 164.505H97.9966C96.6161 164.505 95.4971 165.624 95.4971 167.005V170.752C95.4971 172.133 96.6161 173.252 97.9966 173.252H121.929C123.309 173.252 124.428 172.133 124.428 170.752V167.005C124.428 165.624 123.309 164.505 121.929 164.505Z" fill="#2B3280"/>
<path opacity="0.1" d="M152.206 173.252H128.274C126.893 173.252 125.774 174.371 125.774 175.751V179.499C125.774 180.88 126.893 181.999 128.274 181.999H152.206C153.586 181.999 154.706 180.88 154.706 179.499V175.751C154.706 174.371 153.586 173.252 152.206 173.252Z" fill="#2B3280"/>
<path opacity="0.1" d="M185.847 168.879H161.915C160.534 168.879 159.415 169.998 159.415 171.378V175.126C159.415 176.506 160.534 177.625 161.915 177.625H185.847C187.228 177.625 188.347 176.506 188.347 175.126V171.378C188.347 169.998 187.228 168.879 185.847 168.879Z" fill="#2B3280"/>
<path opacity="0.1" d="M216.124 177.625H192.192C190.811 177.625 189.692 178.744 189.692 180.125V183.873C189.692 185.253 190.811 186.372 192.192 186.372H216.124C217.505 186.372 218.624 185.253 218.624 183.873V180.125C218.624 178.744 217.505 177.625 216.124 177.625Z" fill="#2B3280"/>
<path opacity="0.1" d="M246.401 186.372H222.469C221.089 186.372 219.969 187.491 219.969 188.872V192.619C219.969 194 221.089 195.119 222.469 195.119H246.401C247.782 195.119 248.901 194 248.901 192.619V188.872C248.901 187.491 247.782 186.372 246.401 186.372Z" fill="#2B3280"/>
<path opacity="0.1" d="M185.847 155.759H161.915C160.534 155.759 159.415 156.878 159.415 158.258V162.006C159.415 163.386 160.534 164.505 161.915 164.505H185.847C187.228 164.505 188.347 163.386 188.347 162.006V158.258C188.347 156.878 187.228 155.759 185.847 155.759Z" fill="#2B3280"/>
<path opacity="0.1" d="M216.124 164.505H192.192C190.811 164.505 189.692 165.624 189.692 167.005V170.752C189.692 172.133 190.811 173.252 192.192 173.252H216.124C217.505 173.252 218.624 172.133 218.624 170.752V167.005C218.624 165.624 217.505 164.505 216.124 164.505Z" fill="#2B3280"/>
<path opacity="0.1" d="M246.401 173.252H222.469C221.089 173.252 219.969 174.371 219.969 175.751V179.499C219.969 180.88 221.089 181.999 222.469 181.999H246.401C247.782 181.999 248.901 180.88 248.901 179.499V175.751C248.901 174.371 247.782 173.252 246.401 173.252Z" fill="#2B3280"/>
<path opacity="0.1" d="M162.275 255C243.746 255 309.791 249.578 309.791 242.889C309.791 236.201 243.746 230.778 162.275 230.778C80.8038 230.778 14.7584 236.201 14.7584 242.889C14.7584 249.578 80.8038 255 162.275 255Z" fill="#2B3280"/>
<path d="M28.4772 62.8417C42.3879 68.8701 50.381 81.3443 50.381 81.3443C50.381 81.3443 35.8177 84.0356 21.9038 78.0105C7.98977 71.9853 0 59.5078 0 59.5078C0 59.5078 14.5633 56.8132 28.4772 62.8417Z" fill="#2B3280"/>
<path d="M71.1679 39.6966C75.4706 32.6319 82.7976 29.2678 82.7976 29.2678C82.7976 29.2678 83.134 37.3215 78.8448 44.366C74.5555 51.4104 67.2117 54.7712 67.2117 54.7712C67.2117 54.7712 66.8618 46.7209 71.1679 39.6966Z" fill="#2B3280"/>
<path d="M39.5385 47.2558C42.6167 58.243 51.101 65.4758 51.101 65.4758C51.101 65.4758 54.5963 54.889 51.5181 43.8984C48.44 32.9078 39.9523 25.6783 39.9523 25.6783C39.9523 25.6783 36.457 36.2652 39.5385 47.2558Z" fill="#46455B"/>
<path d="M282.808 46.7612H42.4148C41.0752 46.7612 39.9893 47.8472 39.9893 49.1868V167.126C39.9893 168.466 41.0752 169.551 42.4148 169.551H282.808C284.147 169.551 285.233 168.466 285.233 167.126V49.1868C285.233 47.8472 284.147 46.7612 282.808 46.7612Z" fill="#3F3D56"/>
<path opacity="0.1" d="M39.9893 162.15H285.233V167.126C285.233 167.769 284.978 168.386 284.523 168.841C284.068 169.296 283.451 169.551 282.808 169.551H42.4148C41.7715 169.551 41.1546 169.296 40.6997 168.841C40.2448 168.386 39.9893 167.769 39.9893 167.126V162.15Z" fill="black"/>
<path d="M81.1997 153.067H64.7155C64.2511 153.067 63.8745 153.444 63.8745 153.908V161.309C63.8745 161.774 64.2511 162.15 64.7155 162.15H81.1997C81.6642 162.15 82.0407 161.774 82.0407 161.309V153.908C82.0407 153.444 81.6642 153.067 81.1997 153.067Z" fill="#2B3280"/>
<path d="M98.8613 160.805H87.7597C87.3881 160.805 87.0869 161.106 87.0869 161.478C87.0869 161.849 87.3881 162.15 87.7597 162.15H98.8613C99.2329 162.15 99.5341 161.849 99.5341 161.478C99.5341 161.106 99.2329 160.805 98.8613 160.805Z" fill="#2B3280"/>
<path d="M76.0357 70.7743C84.9136 72.4127 93.9698 70.7743 102.811 69.6642L129.68 66.3C130.767 66.1621 132.348 65.5129 132.987 66.8417C133.347 67.5851 133.105 69.1966 133.132 70.051C133.202 72.4059 133.195 74.7608 133.132 77.1157C133.01 81.6169 132.681 86.108 132.26 90.589C131.443 99.3592 130.285 108.082 129.707 116.886C129.411 121.367 129.263 125.862 129.394 130.343C129.424 131.413 129.468 132.482 129.532 133.549C129.603 134.743 130.137 136.516 128.836 137.313C128.092 137.771 126.629 137.747 125.778 137.882C124.432 138.094 123.086 138.262 121.714 138.4C112.668 139.305 103.504 138.928 94.424 138.874L67.0064 138.733L60.3186 138.696C59.713 138.696 57.5297 139.059 57.1563 138.339C56.9982 138.033 57.4187 136.6 57.4927 136.216C57.5959 135.584 57.708 134.953 57.8291 134.322C58.6096 129.899 59.5314 125.502 60.4599 121.108C62.4548 111.689 64.4968 102.222 65.3177 92.6007C65.7247 87.7732 65.4556 82.902 65.9535 78.0845C66.1856 75.8474 66.4615 70.8551 69.4387 70.6566C71.9618 70.4884 74.5589 70.6566 77.0887 70.6566C77.2225 70.6566 77.3509 70.6034 77.4455 70.5088C77.5402 70.4142 77.5933 70.2858 77.5933 70.152C77.5933 70.0181 77.5402 69.8898 77.4455 69.7951C77.3509 69.7005 77.2225 69.6473 77.0887 69.6473C74.7002 69.6473 72.3083 69.5834 69.9198 69.6305C68.3319 69.6608 67.2285 70.0376 66.4716 71.4976C64.5372 75.2452 64.7357 80.2443 64.6751 84.3351C64.5305 94.128 63.0267 103.712 61.0688 113.29C60.0831 118.111 59.02 122.915 58.0411 127.739C57.5802 130.043 57.1395 132.354 56.7358 134.672C56.5474 135.776 55.5954 138.208 56.433 139.221C57.2707 140.233 59.8476 139.688 61.0015 139.695L69.0283 139.742L84.409 139.83C94.3466 139.887 104.318 140.166 114.252 139.873C118.995 139.732 124.008 139.537 128.627 138.403C130.003 138.067 130.666 137.434 130.719 135.968C130.8 133.693 130.43 131.349 130.383 129.064C130.047 109.519 134.639 90.2458 134.168 70.6936C134.137 69.3648 134.639 66.0141 133.185 65.2101C132.533 64.8468 131.685 65.0452 130.999 65.126C129.687 65.2774 128.378 65.4624 127.066 65.6171L110.027 67.7433C104.58 68.4161 99.1371 69.1427 93.6805 69.7617C87.9043 70.4346 82.071 70.8349 76.315 69.7617C75.6791 69.644 75.4066 70.6162 76.0458 70.734L76.0357 70.7743Z" fill="#2B3280"/>
<path d="M65.3244 82.6664L132.546 79.3696C133.195 79.3359 133.199 78.3267 132.546 78.3603L65.3244 81.6572C64.6785 81.6874 64.6752 82.6967 65.3244 82.6664Z" fill="#2B3280"/>
<path d="M86.0339 74.347C85.8459 74.5462 85.7094 74.7883 85.6362 75.0523C85.5631 75.3163 85.5556 75.5942 85.6143 75.8617C85.6729 76.1293 85.7961 76.3785 85.973 76.5876C86.1499 76.7968 86.3752 76.9595 86.6293 77.0618C87.5343 77.4756 88.5973 77.1291 89.4955 76.9037C90.8412 76.5673 92.1868 76.2679 93.5695 76.0223C96.5788 75.4895 99.6269 75.206 102.683 75.1745C104.076 75.1577 105.458 75.2216 106.851 75.2822C107.86 75.3226 108.947 75.4033 109.801 74.7776C110.777 74.0644 111.093 72.6716 110.138 71.8037C108.792 70.5758 105.892 71.289 104.338 71.4168C98.6984 71.8853 93.0953 72.7214 87.5645 73.9197C86.9321 74.0543 87.1978 75.0299 87.8337 74.8919C91.4826 74.1047 95.1596 73.4723 98.8646 72.9946C100.686 72.7703 102.51 72.5808 104.338 72.4261C105.199 72.3554 106.06 72.2915 106.922 72.241C107.258 72.2208 107.615 72.1838 107.958 72.1939C109.024 72.2175 109.149 72.0257 108.51 73.3142C107.941 74.4546 108.123 74.3234 107.137 74.2864C106.72 74.2864 106.303 74.2393 105.886 74.2191C105.031 74.1832 104.177 74.1642 103.322 74.1619C101.503 74.1619 99.6888 74.2494 97.8789 74.4243C96.3449 74.5724 94.8142 74.7809 93.297 75.0501C92.3483 75.2183 91.4064 75.4134 90.4678 75.6287C90.054 75.7263 89.6368 75.8272 89.223 75.9315C89.0246 75.9853 88.8227 76.0324 88.6242 76.0828C87.8886 76.3385 87.2618 76.0021 86.7437 75.0736C87.1945 74.606 86.4846 73.8894 86.0305 74.3604L86.0339 74.347Z" fill="#2B3280"/>
<path d="M98.2188 88.705C93.3509 88.5166 88.0928 89.8319 84.8868 93.7511C82.3771 96.8159 80.9474 102.074 83.6051 105.526C86.4612 109.226 92.7252 108.573 96.5031 106.996C100.5 105.314 104.873 101.845 106.074 97.5055C107.571 92.0859 102.71 87.9884 97.6469 87.9279C96.9976 87.9279 96.9976 88.9371 97.6469 88.9371C100.533 88.9707 103.366 90.2087 104.712 92.8967C106.121 95.7293 104.907 98.7031 103.029 100.971C100.022 104.58 95.3189 107.302 90.5284 107.224C87.6521 107.181 84.473 106.195 83.5815 103.161C82.8481 100.701 83.4066 98.0135 84.6849 95.8335C87.4502 91.1238 93.0784 89.5292 98.239 89.731C98.8882 89.7546 98.8882 88.7453 98.239 88.7218L98.2188 88.705Z" fill="#2B3280"/>
<path d="M93.3846 96.1801C93.177 96.1032 92.9534 96.08 92.7345 96.1128C92.5156 96.1456 92.3085 96.2332 92.1326 96.3675C91.9567 96.5018 91.8176 96.6784 91.7283 96.8809C91.6389 97.0834 91.6023 97.3053 91.6218 97.5257C91.7227 98.8377 93.1693 99.2078 94.2559 99.1304C95.1945 99.0497 96.2912 98.7032 95.9615 97.5291C95.9008 97.3213 95.7961 97.129 95.6545 96.9653C95.5128 96.8016 95.3376 96.6703 95.1406 96.5804C94.8396 96.461 94.513 96.4205 94.192 96.4627C94.0675 96.4627 92.927 96.8798 93.4115 96.3786L92.6176 96.2743C92.7057 96.3612 92.7732 96.4667 92.8151 96.5832C92.857 96.6996 92.8723 96.824 92.8598 96.9471C92.8613 97.035 92.8856 97.1211 92.9304 97.1968C92.9751 97.2725 93.0387 97.3353 93.115 97.379C93.1913 97.4228 93.2776 97.4459 93.3656 97.4463C93.4535 97.4467 93.54 97.4242 93.6167 97.3811C93.7321 97.3328 93.8587 97.3176 93.9823 97.3373C94.1059 97.357 94.2215 97.4107 94.3162 97.4925C94.4109 97.5743 94.4809 97.6808 94.5184 97.8002C94.5559 97.9196 94.5593 98.0471 94.5284 98.1683C94.5013 98.2848 94.5162 98.4072 94.5705 98.5138C94.6247 98.6204 94.7149 98.7045 94.8251 98.7511C94.9353 98.7978 95.0584 98.804 95.1727 98.7688C95.2871 98.7336 95.3853 98.6591 95.4501 98.5585C95.7865 97.953 96.1936 96.7486 95.689 96.1162C95.3526 95.6889 94.7033 95.8168 94.2996 96.0657C94.0505 96.242 93.8184 96.4414 93.6066 96.6612C93.1995 97.0211 92.9338 97.1893 93.0852 96.4997C93.3375 95.2449 94.5351 94.2457 95.6284 93.7445L94.8883 93.1759C94.5003 94.6341 93.8065 95.993 92.853 97.1624L93.7143 97.519C93.6898 97.0571 93.8085 96.5989 94.0542 96.2069C94.2998 95.815 94.6604 95.5084 95.0868 95.329H94.5923L94.8547 95.7596C94.7571 96.3954 95.7294 96.6679 95.8269 96.0253C95.9548 95.1944 95.43 94.1145 94.4577 94.5216C93.2971 95.006 92.6949 96.3348 92.7185 97.519C92.7185 97.9227 93.2904 98.2356 93.5831 97.879C94.6529 96.5792 95.4339 95.0666 95.874 93.4417C95.8974 93.3453 95.8922 93.2442 95.8592 93.1506C95.8261 93.0571 95.7665 92.9752 95.6877 92.915C95.6089 92.8547 95.5143 92.8187 95.4153 92.8112C95.3164 92.8038 95.2175 92.8253 95.1305 92.8732C94.1228 93.3287 93.2711 94.0704 92.6815 95.006C92.2711 95.6788 91.7563 96.7284 92.1735 97.5022C92.2419 97.626 92.3341 97.735 92.4449 97.8229C92.5557 97.9108 92.6828 97.9759 92.8189 98.0144C92.9549 98.0529 93.0973 98.064 93.2377 98.0471C93.3781 98.0302 93.5138 97.9856 93.6369 97.916C93.9479 97.7316 94.2321 97.5052 94.4813 97.2432C94.6057 97.1321 94.7437 96.9404 94.9085 96.9067C95.0565 96.8058 95.0498 96.863 94.885 97.085C94.8828 97.4337 94.7813 97.7744 94.5923 98.0674L95.514 98.4542C95.5971 98.1401 95.5874 97.8087 95.4861 97.5C95.3849 97.1912 95.1963 96.9185 94.9434 96.7146C94.6904 96.5107 94.3838 96.3845 94.0606 96.3511C93.7374 96.3177 93.4115 96.3787 93.1222 96.5266L93.8825 96.9639C93.8984 96.5358 93.7639 96.1157 93.5023 95.7764C93.4626 95.711 93.4087 95.6553 93.3446 95.6135C93.2806 95.5716 93.2079 95.5447 93.132 95.5347C93.0562 95.5247 92.979 95.5319 92.9063 95.5556C92.8335 95.5794 92.7671 95.6192 92.7118 95.6721C92.2004 96.207 92.1029 97.1321 92.7454 97.6267C93.2265 97.9934 93.4619 97.6267 93.9901 97.5426C95.7832 97.3104 94.7369 98.1178 94.1045 98.1447C93.8217 98.1751 93.5357 98.1546 93.2601 98.0842C92.5581 97.8465 92.5144 97.5403 93.1289 97.1658C93.7311 97.4114 93.9901 96.4358 93.398 96.1936L93.3846 96.1801Z" fill="#2B3280"/>
<path d="M92.5738 98.0237C92.9875 99.3693 91.2786 99.8134 90.4678 100.278C89.8989 100.597 89.4028 101.031 89.0112 101.553C88.1634 102.69 87.8472 104.136 87.568 105.499C87.4401 106.135 88.4123 106.404 88.5435 105.768C88.6974 104.767 88.9837 103.79 89.3947 102.865C90.0002 101.66 90.8681 101.257 91.9985 100.638C93.1288 100.019 93.9463 99.0598 93.546 97.7545C93.3576 97.1355 92.382 97.4013 92.5738 98.0237Z" fill="#2B3280"/>
<path d="M94.2559 97.3474C94.0152 97.3807 93.7956 97.5026 93.6401 97.6893C93.4845 97.8759 93.4042 98.1139 93.4149 98.3566C93.4149 98.757 93.6806 99.0126 93.8623 99.3322C94.2935 99.9861 94.6225 100.702 94.8379 101.455C94.9994 102.178 95.1575 103.473 94.7807 104.146C94.0843 105.394 92.8262 105.156 91.753 105.156C90.7438 105.156 89.9633 105.492 89.9969 104.086C90.0171 103.295 90.5688 102.495 91.0062 101.872L90.0844 101.751C90.2789 102.778 90.3813 103.821 90.3905 104.866C90.3905 105.334 91.1071 105.593 91.3291 105.119C91.87 103.981 92.2992 102.793 92.6109 101.573L91.6184 101.438L91.7934 103.995C91.7963 104.104 91.8343 104.209 91.9017 104.295C91.9691 104.381 92.0624 104.443 92.1677 104.472C92.273 104.5 92.3847 104.494 92.4864 104.454C92.588 104.415 92.6741 104.343 92.732 104.251C92.8498 104.121 92.9361 103.965 92.9843 103.796C93.0179 103.638 92.7084 102.572 92.5839 102.952L93.573 103.087L93.6436 100.658L92.6344 100.792C92.8477 101.477 92.912 102.2 92.8228 102.912C92.7589 103.473 93.7042 103.601 93.832 103.046L94.4645 99.783L93.5427 99.9008C93.7617 100.352 93.8222 100.864 93.7143 101.354C93.6403 102 94.6495 101.993 94.7235 101.354C94.8093 100.684 94.7019 100.004 94.414 99.3928C94.3629 99.3086 94.2884 99.241 94.1995 99.1984C94.1107 99.1558 94.0114 99.14 93.9137 99.1528C93.816 99.1656 93.7241 99.2066 93.6493 99.2707C93.5745 99.3348 93.5199 99.4193 93.4923 99.5139L92.8564 102.777L93.8489 102.912C93.9498 102.11 93.8728 101.295 93.6235 100.527C93.5898 100.411 93.5157 100.311 93.4146 100.245C93.3135 100.179 93.1922 100.151 93.0726 100.167C92.953 100.183 92.843 100.241 92.7626 100.331C92.6822 100.421 92.6367 100.537 92.6344 100.658L92.5638 103.087C92.5638 103.675 93.3812 103.759 93.5562 103.221L93.61 103.056C93.6333 102.97 93.6337 102.88 93.6113 102.794C93.5889 102.708 93.5444 102.629 93.4822 102.565C92.4359 101.428 92.224 103.238 91.8607 103.739L92.8026 103.995L92.6277 101.438C92.5907 100.893 91.7833 100.725 91.6353 101.304C91.3509 102.441 90.9566 103.549 90.4578 104.611L91.3998 104.866C91.3889 103.73 91.2763 102.598 91.0634 101.482C90.9759 101.018 90.367 101.038 90.1416 101.361C89.4688 102.33 88.3048 104.446 89.203 105.606C89.9868 106.616 92.4527 106.225 93.5057 106.161C95.1676 106.067 95.7698 105.014 95.9514 103.447C96.038 102.696 95.9959 101.936 95.827 101.199C95.7361 100.802 94.8177 98.286 94.5419 98.3365C95.181 98.2187 94.9085 97.2431 94.2727 97.3609L94.2559 97.3474Z" fill="#2B3280"/>
<path d="M92.3013 99.6149L89.546 103.251L90.4173 103.759L92.4358 100.839L91.514 100.449L90.5082 104.288C90.4811 104.404 90.496 104.527 90.5503 104.633C90.6046 104.74 90.6947 104.824 90.8049 104.87C90.9151 104.917 91.0382 104.923 91.1525 104.888C91.2669 104.853 91.3651 104.778 91.4299 104.678C91.8877 103.919 92.4016 103.196 92.9674 102.515L92.1263 102.024C91.9005 102.893 91.465 103.693 90.858 104.355L91.7024 104.846C91.7541 104.381 91.8778 103.927 92.0691 103.5C92.3282 102.918 91.5073 102.404 91.1978 102.989C90.9132 103.522 90.5882 104.033 90.2256 104.516L91.1474 104.637L91.3526 103.679L90.4308 103.558L90.5788 104.399C90.6031 104.483 90.649 104.56 90.7119 104.622C90.7749 104.683 90.8528 104.727 90.9379 104.75C91.023 104.772 91.1125 104.772 91.1976 104.749C91.2827 104.727 91.3604 104.682 91.4232 104.621C92.2764 103.738 92.9606 102.706 93.4417 101.576H92.5737C92.8019 101.997 92.962 102.451 93.0481 102.922C93.1692 103.527 93.9732 103.302 94.0371 102.787C94.1816 101.66 94.2558 100.526 94.2592 99.3895H93.2499V101.506C93.2499 102.054 94.1481 102.215 94.2423 101.64C94.309 101.13 94.4771 100.638 94.7369 100.193H93.8521C94.0653 100.537 94.1816 100.933 94.1885 101.337C94.1885 101.471 94.2417 101.599 94.3363 101.694C94.431 101.789 94.5593 101.842 94.6931 101.842C94.827 101.842 94.9553 101.789 95.05 101.694C95.1446 101.599 95.1978 101.471 95.1978 101.337L95.3256 100.664H94.3534C94.4509 101.26 94.821 104.614 93.5056 104.22C93.2836 104.167 93.2197 104.18 93.3139 104.257L93.6133 103.618L94.3164 102.128L93.3744 101.872C93.435 102.565 93.4989 103.554 93.0817 104.146C92.7453 104.627 91.7092 104.819 91.181 104.537C90.8323 104.288 90.5343 103.975 90.303 103.615L89.6133 104.288C90.1718 104.695 91.0767 105.694 91.7966 105.751C92.345 105.795 92.8059 105.341 93.1658 104.977C93.718 104.407 94.1485 103.73 94.4313 102.988C94.714 102.246 94.8432 101.454 94.8109 100.661C94.8109 100.527 94.7577 100.399 94.6631 100.304C94.5685 100.21 94.4401 100.156 94.3063 100.156C94.1724 100.156 94.0441 100.21 93.9494 100.304C93.8548 100.399 93.8016 100.527 93.8016 100.661V101.812C93.8016 101.945 93.8548 102.074 93.9494 102.168C94.0441 102.263 94.1724 102.316 94.3063 102.316C94.4401 102.316 94.5685 102.263 94.6631 102.168C94.7577 102.074 94.8109 101.945 94.8109 101.812V98.9891C94.8109 98.8553 94.7577 98.727 94.6631 98.6323C94.5685 98.5377 94.4401 98.4845 94.3063 98.4845C94.1724 98.4845 94.0441 98.5377 93.9494 98.6323C93.8548 98.727 93.8016 98.8553 93.8016 98.9891C93.7998 99.6657 93.7413 100.341 93.6267 101.008L94.6191 101.142C94.5401 100.338 94.5031 99.531 94.5081 98.7234C94.5065 98.6025 94.4616 98.4861 94.3815 98.3956C94.3014 98.305 94.1914 98.2463 94.0716 98.2299C93.9518 98.2136 93.8301 98.2409 93.7287 98.3068C93.6273 98.3726 93.5529 98.4727 93.5191 98.5888C93.3677 99.2314 93.1827 99.8638 93.0044 100.493L93.9261 100.372L93.8555 100.103C93.8084 99.4601 92.7991 99.4568 92.8462 100.103C92.8573 100.375 92.9285 100.642 93.0548 100.883C93.2499 101.294 93.8588 101.149 93.9766 100.762C94.1683 100.13 94.3399 99.4971 94.4913 98.8579L93.4989 98.7234C93.4938 99.531 93.5309 100.338 93.6099 101.142C93.6604 101.66 94.4947 101.882 94.5989 101.277C94.7333 100.517 94.8042 99.7473 94.8109 98.9757H93.8016V101.798H94.8109V100.648H93.8016C93.861 101.917 93.4201 103.158 92.5737 104.106C92.4426 104.255 92.301 104.394 92.1499 104.523C91.911 104.752 91.6923 104.718 91.5006 104.419C91.0229 104.22 90.5284 103.709 90.1112 103.41C89.6941 103.11 89.1222 103.702 89.4182 104.099C90.1919 105.129 91.3458 106.276 92.7823 105.781C94.2928 105.246 94.498 103.201 94.3836 101.855C94.3466 101.408 93.6772 101.105 93.4451 101.603C93.1086 102.313 92.7722 103.019 92.4358 103.733C92.3181 103.981 92.0994 104.325 92.133 104.621C92.2441 105.378 93.1625 105.253 93.7276 105.209C95.9177 105.045 95.5712 101.939 95.3189 100.379C95.2348 99.8605 94.4812 99.9412 94.3466 100.379C94.2397 100.686 94.184 101.009 94.1818 101.334H95.191C95.1545 100.755 94.9926 100.192 94.7167 99.6822C94.6716 99.6069 94.6077 99.5446 94.5314 99.5014C94.455 99.4582 94.3688 99.4354 94.281 99.4354C94.1933 99.4354 94.107 99.4582 94.0307 99.5014C93.9544 99.5446 93.8905 99.6069 93.8454 99.6822C93.5445 100.201 93.3416 100.772 93.2466 101.364L94.2558 101.499V99.3828C94.2558 99.2489 94.2026 99.1206 94.108 99.0259C94.0134 98.9313 93.885 98.8781 93.7512 98.8781C93.6174 98.8781 93.489 98.9313 93.3944 99.0259C93.2997 99.1206 93.2466 99.2489 93.2466 99.3828C93.2432 100.519 93.169 101.654 93.0245 102.78L94.017 102.646C93.9028 102.096 93.709 101.566 93.4417 101.072C93.3966 100.996 93.3327 100.934 93.2564 100.891C93.18 100.848 93.0938 100.825 93.006 100.825C92.9183 100.825 92.832 100.848 92.7557 100.891C92.6793 100.934 92.6155 100.996 92.5704 101.072C92.1317 102.125 91.5008 103.088 90.71 103.911L91.5544 104.133L91.4064 103.292C91.329 102.844 90.6966 102.831 90.4846 103.171C90.3174 103.424 90.204 103.708 90.1513 104.007C90.0987 104.306 90.1079 104.612 90.1785 104.907C90.2626 105.384 90.8681 105.334 91.1003 105.028C91.4628 104.545 91.7878 104.036 92.0725 103.504L91.2012 102.992C90.9686 103.495 90.8099 104.029 90.7302 104.577C90.6696 105.021 91.1978 105.485 91.5746 105.068C92.2978 104.277 92.8215 103.324 93.1019 102.289C93.2264 101.832 92.5939 101.398 92.2575 101.798C91.6386 102.54 91.0763 103.327 90.5755 104.153L91.4972 104.543L92.5233 100.718C92.5504 100.602 92.5355 100.479 92.4812 100.373C92.4269 100.266 92.3367 100.182 92.2265 100.135C92.1164 100.089 91.9933 100.083 91.8789 100.118C91.7646 100.153 91.6663 100.227 91.6015 100.328L89.583 103.251C89.2063 103.793 90.0708 104.261 90.4544 103.759L93.1995 100.126C93.5897 99.6081 92.715 99.117 92.3282 99.6149H92.3013Z" fill="#2B3280"/>
<path d="M135.221 111.756C139.258 109.287 142.467 105.603 146.033 102.521C149.902 99.1809 153.962 96.0691 158.144 93.1221C166.265 87.4031 174.793 82.2863 183.314 77.1829C183.425 77.113 183.504 77.0031 183.535 76.8761C183.566 76.7492 183.546 76.6152 183.48 76.5023C183.414 76.3894 183.307 76.3065 183.182 76.2709C183.056 76.2353 182.921 76.2499 182.806 76.3116C174.285 81.415 165.753 86.5217 157.632 92.2508C153.801 94.9421 150.06 97.7949 146.474 100.823C142.571 104.119 139.096 108.224 134.699 110.885C134.144 111.221 134.652 112.096 135.207 111.756H135.221Z" fill="#2B3280"/>
<path d="M196.343 61.5129C191.97 61.957 187.26 63.0705 184.569 66.8955C182.244 70.1856 182.295 75.9248 184.478 79.3024C186.957 83.1408 192.024 83.2787 195.96 82.0374C199.896 80.796 203.97 78.6194 203.933 73.9164C203.913 71.3933 203.001 68.7659 201.995 66.4783C201.127 64.5036 199.59 62.7778 197.262 62.9965C196.619 63.0571 196.612 64.0663 197.262 64.0057C200.38 63.7164 201.383 67.4203 202.123 69.7584C202.796 71.9417 203.418 74.5253 202.362 76.6952C201.305 78.865 198.759 79.9718 196.582 80.7657C194.227 81.6202 191.64 82.1417 189.181 81.4386C184.31 80.0761 182.964 73.903 184.367 69.5229C185.982 64.4767 191.701 62.9931 196.36 62.5222C196.999 62.4582 197.006 61.449 196.36 61.5129H196.343Z" fill="#2B3280"/>
<path d="M203.072 100.537C198.698 100.981 193.988 102.094 191.297 105.919C188.973 109.209 189.023 114.948 191.206 118.326C193.686 122.165 198.752 122.302 202.688 121.061C206.624 119.82 210.698 117.643 210.661 112.94C210.641 110.417 209.729 107.79 208.723 105.502C207.855 103.527 206.318 101.802 203.99 102.02C203.347 102.081 203.341 103.09 203.99 103.029C207.109 102.74 208.111 106.444 208.851 108.782C209.524 110.965 210.146 113.549 209.09 115.719C208.034 117.889 205.487 118.996 203.31 119.789C200.956 120.644 198.369 121.165 195.909 120.462C191.038 119.1 189.693 112.927 191.095 108.547C192.71 103.5 198.429 102.017 203.088 101.546C203.728 101.482 203.734 100.473 203.088 100.537H203.072Z" fill="#2B3280"/>
<path d="M189.746 71.3394L192.932 74.9727C192.995 75.0335 193.073 75.077 193.158 75.099C193.242 75.1209 193.332 75.1205 193.416 75.0978C193.501 75.0751 193.578 75.0309 193.641 74.9695C193.703 74.9081 193.749 74.8315 193.773 74.7473C194.446 72.9777 194.318 71.1443 194.476 69.2839C194.65 67.3611 195.133 65.4789 195.906 63.7096C197.458 60.1209 200.089 57.1048 203.435 55.0806C203.99 54.7442 203.482 53.8696 202.927 54.2093C199.628 56.1956 196.982 59.1024 195.314 62.5725C194.497 64.2611 193.93 66.0596 193.632 67.9114C193.295 70.0947 193.601 72.3823 192.794 74.4781L193.638 74.2527L190.469 70.6262C190.039 70.1384 189.329 70.855 189.756 71.3394H189.746Z" fill="#2B3280"/>
<path d="M136.845 115.689C154.198 115.159 171.554 115.047 188.915 115.352C189.564 115.352 189.564 114.343 188.915 114.343C171.559 114.033 154.202 114.146 136.845 114.679C136.196 114.7 136.193 115.709 136.845 115.689Z" fill="#2B3280"/>
<path d="M192.542 105.737C198.474 108.066 204.179 110.933 209.588 114.303C210.139 114.639 210.647 113.774 210.096 113.431C204.616 110.02 198.835 107.119 192.824 104.765C192.222 104.526 191.96 105.502 192.559 105.737H192.542Z" fill="#2B3280"/>
<path d="M203.314 101.166C197.299 108.178 193.814 117.008 193.42 126.238C193.393 126.888 194.402 126.888 194.429 126.238C194.811 117.273 198.191 108.695 204.027 101.879C204.447 101.388 203.738 100.671 203.314 101.166Z" fill="#2B3280"/>
<path d="M68.7659 112.025L106.367 111.534L110.69 111.477C111.467 111.477 112.244 111.45 113.021 111.446C114.114 111.446 114.851 112.355 114.831 113.465C114.78 115.82 113.3 115.736 111.362 115.82L106.69 116.032L87.6622 116.869C84.2543 117.021 80.8431 117.206 77.4352 117.324C74.3604 117.418 68.5136 116.415 69.8794 111.941C70.0678 111.319 69.0956 111.053 68.9038 111.672C68.231 113.872 69.4219 116.106 71.3395 117.26C74.061 118.895 77.6472 118.339 80.6513 118.205L104.012 117.145L109.684 116.893C111.137 116.826 113.159 117.122 114.494 116.445C116.062 115.655 116.338 112.516 115.349 111.194C114.841 110.521 114.128 110.461 113.33 110.43C111.238 110.35 109.108 110.488 107.013 110.515L95.366 110.669L68.7525 111.006C68.1032 111.006 68.1032 112.015 68.7525 112.015L68.7659 112.025Z" fill="#2B3280"/>
<path d="M220.683 235.656C219.835 236.188 218.866 236.487 217.991 236.955C217.117 237.422 216.266 238.126 216.017 239.094C215.924 239.395 215.939 239.719 216.06 240.01C216.278 240.36 216.611 240.624 217.002 240.756C218.779 241.545 220.698 241.964 222.643 241.986C224.587 242.008 226.515 241.633 228.309 240.884C228.941 240.581 229.593 240.322 230.26 240.11C231.083 239.943 231.92 239.857 232.76 239.855C233.642 239.803 234.52 239.691 235.387 239.518C235.823 239.47 236.236 239.298 236.578 239.024C236.89 238.664 237.078 238.214 237.113 237.739C237.511 235.118 236.911 232.443 235.431 230.243C235.245 229.935 234.995 229.67 234.698 229.466C234.336 229.279 233.937 229.173 233.53 229.154C231.848 228.948 230.085 228.572 228.387 228.531C227.169 228.504 226.557 229.083 225.695 229.921C223.916 231.7 222.876 234.287 220.683 235.656Z" fill="#323444"/>
<path d="M245.473 235.407C245.473 237.056 245.671 238.802 246.67 240.117C247.127 240.686 247.681 241.17 248.305 241.547C250.418 242.893 253.217 243.387 255.444 242.247C255.804 242.085 256.111 241.827 256.332 241.5C256.669 240.914 256.49 240.184 256.302 239.538L253.079 228.37C250.997 228.689 247.935 228.915 246.085 229.971C244.743 230.735 245.473 233.934 245.473 235.407Z" fill="#323444"/>
<path d="M218.792 166.635C218.597 167.25 217.891 167.536 217.504 168.054C217.05 168.663 217.097 169.508 217.262 170.248C217.465 171.339 217.978 172.349 218.738 173.158C219.124 173.558 219.601 173.861 220.127 174.04C220.654 174.219 221.216 174.269 221.766 174.187C222.849 173.982 223.785 173.023 223.822 171.923C223.802 171.423 223.695 170.93 223.505 170.466L221.211 163.832C221.202 163.786 221.182 163.741 221.155 163.702C221.127 163.663 221.091 163.631 221.05 163.607C220.963 163.588 220.872 163.603 220.797 163.651C220.256 163.906 219.169 164.176 218.853 164.737C218.537 165.299 219.021 166.026 218.792 166.635Z" fill="#FBB3B2"/>
<path d="M217.719 166.302C218.557 166.171 219.29 165.679 220.074 165.356C220.858 165.033 221.84 164.909 222.499 165.447C222.688 165.602 222.869 165.814 223.115 165.811C222.781 164.166 222.276 162.56 221.608 161.02C221.584 160.946 221.539 160.882 221.477 160.835C221.385 160.798 221.282 160.798 221.191 160.835L218.927 161.427C218.089 161.646 217.991 161.579 218.055 162.403C218.072 162.769 218.261 166.302 217.719 166.302Z" fill="#323444"/>
<path d="M217.47 118.397C217.133 118.915 217.133 119.561 217.133 120.17C217.133 123.147 217.164 126.141 217.604 129.088C217.709 129.794 217.84 130.501 217.907 131.214C217.983 132.207 217.999 133.203 217.954 134.198L217.618 147.15C217.578 148.734 217.497 150.436 216.518 151.681C216.221 152.098 216.082 152.607 216.124 153.118C216.38 156.367 216.918 159.59 217.453 162.803C218.314 162.414 219.255 162.235 220.199 162.28C221.143 162.325 222.062 162.593 222.883 163.062C224.58 157.725 225.519 152.176 225.672 146.578C225.749 143.823 225.631 141.051 226.055 138.329C226.765 133.747 226.476 129.047 225.954 124.439C225.789 122.979 225.439 121.475 224.504 120.344C223.619 119.355 222.44 118.676 221.14 118.407C219.895 118.08 218.782 118.417 217.47 118.397Z" fill="#5B5583"/>
<path opacity="0.1" d="M217.47 118.397C217.133 118.915 217.133 119.561 217.133 120.17C217.133 123.147 217.164 126.141 217.604 129.088C217.709 129.794 217.84 130.501 217.907 131.214C217.983 132.207 217.999 133.203 217.954 134.198L217.618 147.15C217.578 148.734 217.497 150.436 216.518 151.681C216.221 152.098 216.082 152.607 216.124 153.118C216.38 156.367 216.918 159.59 217.453 162.803C218.314 162.414 219.255 162.235 220.199 162.28C221.143 162.325 222.062 162.593 222.883 163.062C224.58 157.725 225.519 152.176 225.672 146.578C225.749 143.823 225.631 141.051 226.055 138.329C226.765 133.747 226.476 129.047 225.954 124.439C225.789 122.979 225.439 121.475 224.504 120.344C223.619 119.355 222.44 118.676 221.14 118.407C219.895 118.08 218.782 118.417 217.47 118.397Z" fill="black"/>
<path d="M221.581 155.957C219.325 167.519 220.557 179.491 225.12 190.352C225.514 191.156 225.791 192.012 225.941 192.895C226.126 194.543 225.366 196.128 224.932 197.723C223.922 201.349 224.504 205.211 225.15 208.922C225.419 210.469 225.696 212.016 225.981 213.561C226.26 215.068 226.529 216.706 225.83 218.072C226.432 220.582 226.789 223.068 227.391 225.577C227.455 225.776 227.474 225.986 227.448 226.193C227.327 226.521 227.113 226.808 226.832 227.017C226.383 227.472 226.061 228.036 225.896 228.654C225.732 229.272 225.731 229.921 225.894 230.539C227.431 229.436 229.574 229.823 231.33 230.539C233.086 231.256 234.815 232.222 236.713 232.222C236.437 229.995 236.171 227.656 236.992 225.567C237.47 224.356 238.311 223.212 238.287 221.917C238.264 220.757 237.554 219.72 237.382 218.573C237.318 217.86 237.346 217.141 237.463 216.434C237.914 212.316 237.402 208.158 236.891 204.047C236.833 203.236 236.642 202.441 236.326 201.692C236.087 201.208 235.73 200.744 235.737 200.202C235.737 199.573 236.245 199.061 236.433 198.463C236.77 197.359 236.151 195.859 237.083 195.176C239.539 193.373 238.597 189.067 238.543 186.022C238.5 183.396 238.388 180.772 238.206 178.15C239.753 182.498 240.385 187.118 240.063 191.721C239.956 193.228 239.757 194.813 240.346 196.205C240.797 197.275 241.692 198.157 241.934 199.29C242.085 199.99 241.978 200.713 242.011 201.426C242.045 202.14 242.287 202.917 242.903 203.277C242.95 206.52 243.239 209.988 243.29 213.231C243.257 214.889 243.392 216.546 243.693 218.176C243.844 218.695 243.928 219.231 243.942 219.771C243.866 220.448 243.687 221.109 243.411 221.732C242.824 223.468 242.671 225.321 242.964 227.13C243.257 228.939 243.988 230.649 245.093 232.111C245.887 230.701 247.542 229.954 249.157 229.836C250.771 229.719 252.366 230.126 253.93 230.536C253.691 228.571 254.082 226.58 255.047 224.851C255.306 224.461 255.504 224.035 255.636 223.586C255.818 222.731 255.394 221.88 255.165 221.036C254.791 219.69 254.923 218.24 255.01 216.834C255.304 212.125 255.095 207.397 254.388 202.732C254.279 201.813 254.063 200.91 253.745 200.04C253.624 199.731 253.476 199.435 253.375 199.122C253.216 198.561 253.126 197.982 253.106 197.4L252.719 192.017C252.447 188.246 253.685 184.522 254.549 180.841C254.936 179.193 255.357 177.548 255.616 175.873C255.969 173.592 256.026 171.26 256.544 169.01C257.008 166.991 257.846 165.023 258.021 162.954C258.29 159.748 256.958 156.65 255.666 153.71C255.128 152.499 253.093 152.62 251.784 152.405C242.502 150.881 232.726 150.87 223.973 154.305C223.068 154.68 222.252 155.243 221.581 155.957Z" fill="#3C354C"/>
<path d="M228.272 96.2473L229.302 100.251C229.582 101.169 229.737 102.12 229.763 103.08C229.773 103.43 229.696 103.777 229.537 104.089C229.368 104.345 229.151 104.567 228.898 104.742C228.195 105.277 227.707 106.525 226.903 106.895C227.317 107.615 227.889 107.147 228.636 107.507C229.951 108.146 231.155 109.065 232.582 109.381C233.927 109.677 235.34 109.398 236.676 109.044C238.57 108.53 240.454 107.82 241.978 106.579C243.502 105.337 244.37 104.24 244.363 102.279C242.681 102.478 241.184 100.779 240.44 99.2515C240.182 98.6709 239.993 98.0624 239.875 97.4382L238.974 93.4719C237.991 93.6872 237.191 94.3903 236.252 94.757C235.313 95.1237 234.203 95.1573 233.16 95.2044C231.309 95.2886 229.468 95.5272 227.657 95.9176C227.408 95.9681 227.095 96.1262 227.155 96.3684" fill="#FBB3B2"/>
<path opacity="0.1" d="M228.272 96.2473L229.302 100.251C229.582 101.169 229.737 102.12 229.763 103.08C229.773 103.43 229.696 103.777 229.537 104.089C229.368 104.345 229.151 104.567 228.898 104.742C228.195 105.277 227.707 106.525 226.903 106.895C227.317 107.615 227.889 107.147 228.636 107.507C229.951 108.146 231.155 109.065 232.582 109.381C233.927 109.677 235.34 109.398 236.676 109.044C238.57 108.53 240.454 107.82 241.978 106.579C243.502 105.337 244.37 104.24 244.363 102.279C242.681 102.478 241.184 100.779 240.44 99.2515C240.182 98.6709 239.993 98.0624 239.875 97.4382L238.974 93.4719C237.991 93.6872 237.191 94.3903 236.252 94.757C235.313 95.1237 234.203 95.1573 233.16 95.2044C231.309 95.2886 229.468 95.5272 227.657 95.9176C227.408 95.9681 227.095 96.1262 227.155 96.3684" fill="black"/>
<path d="M232.693 98.4542C237.612 98.4542 241.601 94.4658 241.601 89.546C241.601 84.6261 237.612 80.6378 232.693 80.6378C227.773 80.6378 223.784 84.6261 223.784 89.546C223.784 94.4658 227.773 98.4542 232.693 98.4542Z" fill="#FBB3B2"/>
<path d="M235.145 104.23C235.621 103.202 236.309 102.285 237.163 101.539C238.418 100.439 240.134 99.5476 240.43 97.9059L243.148 101.072C243.296 101.218 243.411 101.395 243.485 101.59C243.519 101.772 243.514 101.96 243.47 102.14C243.426 102.321 243.344 102.49 243.229 102.636C242.556 103.709 241.496 104.476 240.494 105.253C238.196 107.073 235.996 109.014 233.904 111.066C233.811 111.173 233.688 111.249 233.55 111.282C233.42 111.285 233.292 111.249 233.184 111.177C231.378 110.229 229.78 108.93 228.484 107.356C228.386 107.238 228.265 107.103 228.107 107.113C228.012 107.131 227.924 107.177 227.855 107.245C226.95 107.985 225.961 108.87 224.8 108.755C226.304 107.675 227.155 105.872 227.471 104.045C227.534 103.42 227.662 102.803 227.855 102.205C227.955 101.906 228.126 101.636 228.355 101.419C228.584 101.202 228.863 101.044 229.167 100.96C228.434 102.081 228.935 103.669 229.92 104.574C230.878 105.386 232.026 105.943 233.258 106.192C234.401 106.407 234.738 105.112 235.145 104.23Z" fill="#323444"/>
<path d="M223.556 156.872C224.824 157.185 226.025 157.716 227.256 158.11C229.5 158.813 231.862 159.061 234.203 158.84C234.924 158.824 235.625 158.601 236.222 158.198C236.38 158.07 236.524 157.918 236.693 157.801C236.974 157.632 237.279 157.506 237.598 157.427C240.682 156.462 243.266 154.379 245.772 152.341C245.853 152.273 245.944 152.189 245.937 152.082C245.926 152.008 245.89 151.941 245.836 151.89L244.518 150.376C241.059 150.965 237.517 150.743 234.008 150.655C233.288 150.623 232.566 150.642 231.848 150.712C231.155 150.793 230.472 150.968 229.789 151.116C227.196 151.681 224.545 151.897 221.917 152.267C221.734 152.28 221.555 152.335 221.396 152.428C221.285 152.514 221.191 152.619 221.117 152.738L220.195 154.033C219.837 154.468 219.574 154.974 219.421 155.516C219.206 156.526 219.657 156.862 220.515 156.731C221.528 156.582 222.56 156.63 223.556 156.872Z" fill="#323444"/>
<path d="M233.867 109.525C232.838 108.471 231.671 107.56 230.398 106.817C229.884 106.491 229.314 106.263 228.716 106.145C228.416 106.085 228.106 106.092 227.808 106.166C227.511 106.239 227.233 106.376 226.994 106.568C226.694 106.834 226.506 107.204 226.217 107.483C225.853 107.789 225.435 108.025 224.985 108.18C223.454 108.834 222.003 109.661 220.659 110.646C219.927 111.158 219.267 111.767 218.698 112.456C217.174 114.407 216.945 117.061 216.986 119.537C217.016 121.259 218.668 122.538 219.805 123.826C220.871 125.094 221.836 126.444 222.691 127.863C223.303 128.832 223.943 129.882 223.865 131.036C223.801 131.981 223.25 132.869 223.337 133.811C223.367 134.147 223.475 134.457 223.505 134.783C223.566 135.456 223.3 136.129 223.233 136.802C223.142 137.754 223.451 138.699 223.468 139.658C223.456 140.314 223.372 140.967 223.219 141.606C222.573 144.68 221.763 147.772 221.928 150.911L220.064 151.247C220.24 151.42 220.374 151.632 220.453 151.867C220.532 152.101 220.555 152.35 220.52 152.595C220.485 152.84 220.393 153.073 220.251 153.275C220.109 153.477 219.922 153.644 219.704 153.76C222.614 154.732 225.759 154.241 228.844 154.238C231.397 154.238 233.941 154.574 236.491 154.527C239.041 154.48 241.672 154.019 243.774 152.576C244.346 152.186 244.871 151.728 245.473 151.389C246.28 150.971 247.149 150.686 248.047 150.547C249.709 150.23 251.4 150.079 253.093 150.097C253.92 150.097 254.822 150.13 255.481 149.632C256.208 149.081 256.393 148.082 256.49 147.177C256.588 146.221 256.649 145.262 256.665 144.304C256.694 143.557 256.654 142.809 256.548 142.07C256.447 141.529 256.315 140.995 256.154 140.469L254.886 136.001C254.361 134.158 255.091 132.136 255.246 130.225C255.283 129.774 255.289 129.249 254.943 128.96C254.818 128.856 254.647 128.785 254.607 128.624C254.588 128.547 254.586 128.467 254.6 128.39C254.614 128.312 254.644 128.238 254.687 128.173C255.36 126.827 256.369 125.64 257.291 124.425C258.839 122.295 260.277 120.086 261.597 117.808C261.184 113.04 259.176 108.551 255.898 105.065C255.226 104.335 254.455 103.635 253.513 103.305C252.898 103.117 252.259 103.014 251.616 102.999C248.978 102.821 246.233 102.663 243.936 101.337C243.771 101.223 243.584 101.144 243.387 101.105C242.879 101.048 242.509 101.549 242.179 101.946C241.332 102.955 240.084 103.534 238.987 104.277C236.942 105.667 235.344 107.578 233.867 109.525Z" fill="#5B5583"/>
<path d="M261.826 119.184C262.351 120.846 262.3 122.622 262.472 124.354C262.573 125.4 262.757 126.436 263.02 127.453C263.14 128.012 263.357 128.546 263.659 129.031C263.962 129.475 264.396 129.835 264.588 130.336C264.693 130.675 264.739 131.03 264.726 131.385L264.766 133.707C264.852 134.937 264.665 136.171 264.218 137.32L262.768 141.73C261.984 144.119 261.18 146.544 259.767 148.623C259.568 148.975 259.266 149.258 258.902 149.434C258.618 149.509 258.326 149.554 258.031 149.569C257.518 149.66 257.053 149.927 256.716 150.325C256.379 150.722 256.191 151.224 256.184 151.745C255.848 151.253 255.427 150.824 254.943 150.477L251.993 148.122C250.983 147.301 249.93 146.467 248.706 145.992C250.353 145.478 251.815 144.497 252.915 143.167C254.015 141.838 254.705 140.218 254.903 138.504C254.901 137.994 255.016 137.49 255.239 137.03C255.485 136.634 255.939 136.331 255.972 135.863C256.013 135.274 255.347 134.83 255.347 134.242C255.347 133.851 255.636 133.528 255.764 133.162C255.883 132.709 255.883 132.232 255.764 131.779L255.357 129.518C255.333 129.292 255.264 129.072 255.155 128.872C255.003 128.681 254.834 128.503 254.65 128.341C253.95 127.557 254.26 126.323 254.65 125.357C255.546 123.214 256.701 121.188 258.088 119.325C258.582 118.7 259.039 118.046 259.458 117.367C259.814 116.748 259.895 115.89 260.272 115.349C260.756 116.62 261.412 117.875 261.826 119.184Z" fill="#5B5583"/>
<path d="M248.602 146.13C248.451 146.242 248.322 146.378 248.218 146.534C247.822 147.032 247.294 147.408 246.694 147.621C247.031 147.863 247.337 148.102 247.653 148.347C249.993 150.154 252.135 152.203 254.045 154.46C254.257 153.703 255.525 153.757 255.834 153.034C255.907 152.827 255.93 152.605 255.902 152.388C255.837 151.254 255.675 150.129 255.417 149.024C255.315 148.454 255.085 147.916 254.744 147.449C254.273 146.881 253.54 146.608 252.84 146.373C251.781 146.003 249.678 145.481 248.602 146.13Z" fill="#323444"/>
<path d="M244.396 148.775C243.387 149.521 242.502 150.457 241.369 150.968C240.568 151.331 239.656 151.489 238.957 152.031C239.337 152.869 240.326 153.303 241.244 153.269C242.163 153.179 243.044 152.856 243.804 152.33C244.406 151.96 245.113 151.53 245.769 151.789C245.87 152.3 245.432 152.781 245.432 153.299C245.432 153.817 245.863 154.194 246.287 154.467C248.305 155.769 250.903 155.661 253.308 155.51C253.446 155.515 253.582 155.475 253.695 155.395C253.747 155.334 253.787 155.264 253.811 155.188C253.836 155.111 253.846 155.031 253.839 154.951C253.87 154.42 253.883 153.891 253.887 153.36C253.955 152.931 253.899 152.492 253.726 152.094C253.553 151.696 253.27 151.356 252.911 151.113C251.606 149.991 250.198 148.994 248.706 148.135C247.226 147.278 245.725 147.786 244.396 148.775Z" fill="#FBB3B2"/>
<path d="M235.821 85.8219C234.328 86.0002 233.241 87.1676 233.392 88.4359C233.544 89.7041 234.876 90.5788 236.37 90.3971C237.863 90.2155 238.95 89.0515 238.799 87.7866C238.647 86.5217 237.315 85.6436 235.821 85.8219ZM236.329 90.0473C235.064 90.1987 233.937 89.4552 233.806 88.3854C233.675 87.3156 234.6 86.3266 235.862 86.1752C237.123 86.0238 238.254 86.7673 238.385 87.8371C238.516 88.9068 237.591 89.8959 236.329 90.0473Z" fill="#3C354C"/>
<path d="M228.541 86.6966C227.048 86.8749 225.961 88.0422 226.112 89.3071C226.264 90.5721 227.596 91.4501 229.09 91.2718C230.583 91.0935 231.67 89.9261 231.519 88.6579C231.367 87.3896 230.035 86.5183 228.541 86.6966ZM229.049 90.9186C227.784 91.0699 226.657 90.3265 226.53 89.26C226.402 88.1936 227.32 87.2012 228.585 87.0465C229.85 86.8917 230.977 87.6385 231.105 88.7083C231.233 89.7781 230.311 90.7672 229.049 90.9186Z" fill="#3C354C"/>
<path d="M223.135 87.3459L226.382 88.039L226.062 88.8934L223.001 87.9952L223.135 87.3459Z" fill="#3C354C"/>
<path d="M241.231 85.1726L238.237 86.6158L238.752 87.3694L241.513 85.7714L241.231 85.1726Z" fill="#3C354C"/>
<path d="M231.219 87.8236L233.497 87.5511L233.379 88.1163L231.424 88.2475L231.219 87.8236Z" fill="#3C354C"/>
<path d="M226.802 87.0599C227.016 86.599 227.131 86.0981 227.139 85.5898C227.147 85.2856 227.199 84.9842 227.293 84.695C227.459 84.3276 227.71 84.0057 228.027 83.7564C229.076 82.8682 230.58 82.4107 232.064 82.3468C233.681 82.2724 235.291 82.6202 236.733 83.356C237.174 83.5625 237.568 83.8554 237.894 84.2173C238.365 84.7925 238.466 85.536 238.94 86.1045C239.264 86.4495 239.671 86.7051 240.122 86.8465C240.574 86.988 241.054 87.0105 241.517 86.9119C241.682 86.3266 241.466 85.7076 241.55 85.1087C241.683 84.5956 241.862 84.0957 242.085 83.6151C242.607 82.0777 241.846 80.2947 240.279 79.3763C239.73 79.0399 239.081 78.8212 238.671 78.3671C238.26 77.9129 238.163 77.4419 237.88 76.9878C237.13 75.7868 235.189 75.225 233.712 75.7801C233.248 75.955 232.837 76.2208 232.366 76.4092C231.492 76.7691 230.496 76.833 229.534 76.9541C228.585 77.0418 227.658 77.2851 226.789 77.6741C225.958 78.0845 225.261 78.7439 225.07 79.5311C224.979 79.8944 224.999 80.2712 224.908 80.6311C224.444 82.4578 221.446 83.346 221.278 85.2097C221.218 85.8825 221.584 86.5284 222.042 87.0767C222.358 87.4502 223.115 88.4493 223.65 88.594C224.185 88.7386 224.592 88.2306 225.103 88.0557C225.911 87.8034 226.398 87.7496 226.802 87.0599Z" fill="#CBCEDA"/>
<path d="M264.752 205.547C264.752 222.449 275.356 236.127 288.459 236.127L264.752 205.547Z" fill="#46455B"/>
<path d="M288.459 236.131C288.459 219.038 300.294 205.208 314.918 205.208L288.459 236.131Z" fill="#2B3280"/>
<path d="M273.344 207.082C273.344 223.138 280.106 236.131 288.459 236.131L273.344 207.082Z" fill="#2B3280"/>
<path d="M288.459 236.131C288.459 214.291 302.138 196.616 319.039 196.616L288.459 236.131Z" fill="#46455B"/>
<path opacity="0.1" d="M287.433 241.971C290.689 241.971 293.327 241.525 293.327 240.975C293.327 240.425 290.689 239.979 287.433 239.979C284.178 239.979 281.54 240.425 281.54 240.975C281.54 241.525 284.178 241.971 287.433 241.971Z" fill="#2B3280"/>
<path d="M283.474 236.346C283.474 236.346 286.838 236.242 287.847 235.522C288.856 234.802 293.018 233.937 293.27 235.095C293.522 236.252 298.316 240.851 294.525 240.881C290.734 240.911 285.704 240.289 284.695 239.673C283.686 239.057 283.474 236.346 283.474 236.346Z" fill="#A8A8A8"/>
<path opacity="0.2" d="M294.596 240.477C290.801 240.507 285.778 239.885 284.766 239.269C283.995 238.802 283.689 237.116 283.585 236.343H283.474C283.474 236.343 283.686 239.054 284.698 239.67C285.711 240.285 290.734 240.908 294.528 240.877C295.625 240.877 296.002 240.477 295.982 239.902C295.83 240.252 295.43 240.47 294.596 240.477Z" fill="black"/>
<path d="M7.56592 215.425C7.56592 228.881 15.9998 239.754 26.4252 239.754L7.56592 215.425Z" fill="#46455B"/>
<path d="M26.4252 239.754C26.4252 226.156 35.8447 215.152 47.4744 215.152L26.4252 239.754Z" fill="#2B3280"/>
<path d="M14.3984 216.649C14.3984 229.433 19.781 239.761 26.4252 239.761L14.3984 216.649Z" fill="#2B3280"/>
<path d="M26.4252 239.754C26.4252 222.378 37.3081 208.316 50.7545 208.316L26.4252 239.754Z" fill="#46455B"/>
<path opacity="0.1" d="M25.6077 244.403C28.1976 244.403 30.2972 244.048 30.2972 243.609C30.2972 243.171 28.1976 242.815 25.6077 242.815C23.0177 242.815 20.9181 243.171 20.9181 243.609C20.9181 244.048 23.0177 244.403 25.6077 244.403Z" fill="#2B3280"/>
<path d="M22.4589 239.925C22.4589 239.925 25.1333 239.841 25.9374 239.253C26.7414 238.664 30.055 237.991 30.2535 238.916C30.452 239.841 34.2736 243.495 31.2628 243.518C28.2519 243.542 24.2452 243.047 23.4412 242.559C22.6372 242.072 22.4589 239.925 22.4589 239.925Z" fill="#A8A8A8"/>
<path opacity="0.2" d="M31.3065 243.226C28.2788 243.249 24.2889 242.755 23.4849 242.264C22.8726 241.893 22.6304 240.551 22.5463 239.936H22.4589C22.4589 239.936 22.6271 242.092 23.4311 242.583C24.2351 243.074 28.235 243.565 31.2527 243.542C32.124 243.542 32.4267 243.226 32.4099 242.765C32.2888 243.034 31.9558 243.205 31.3065 243.226Z" fill="black"/>
</g>
<defs>
<clipPath id="clip0">
<rect width="319.043" height="255" fill="white"/>
</clipPath>
</defs>
</svg>
