<svg width="422" height="255" viewBox="0 0 422 255" fill="none" xmlns="http://www.w3.org/2000/svg">
<g clip-path="url(#clip0)">
<path d="M242.702 95.8726C250.398 95.8726 256.637 89.6341 256.637 81.9384C256.637 74.2427 250.398 68.0042 242.702 68.0042C235.007 68.0042 228.768 74.2427 228.768 81.9384C228.768 89.6341 235.007 95.8726 242.702 95.8726Z" fill="#2F2E41"/>
<path d="M246.584 68.3877C248.996 68.388 251.366 69.0141 253.463 70.2047C255.56 71.3953 257.312 73.1097 258.549 75.1803C259.785 77.2509 260.462 79.6068 260.515 82.0178C260.568 84.4287 259.995 86.8121 258.851 88.935C260.059 87.4235 260.939 85.6769 261.434 83.8066C261.93 81.9362 262.031 79.9831 261.73 78.0716C261.429 76.1602 260.734 74.3324 259.687 72.7047C258.641 71.077 257.267 69.6851 255.653 68.6177C254.039 67.5504 252.221 66.8309 250.314 66.5052C248.406 66.1795 246.452 66.2547 244.575 66.726C242.699 67.1973 240.941 68.0544 239.414 69.2427C237.886 70.4309 236.624 71.9243 235.706 73.6275C237.008 71.9922 238.663 70.6718 240.546 69.7646C242.43 68.8574 244.494 68.3867 246.584 68.3877Z" fill="#2F2E41"/>
<path d="M216.664 81.9088C239.27 81.9088 257.596 63.583 257.596 40.977C257.596 18.371 239.27 0.045166 216.664 0.045166C194.058 0.045166 175.732 18.371 175.732 40.977C175.732 63.583 194.058 81.9088 216.664 81.9088Z" fill="#2F2E41"/>
<path d="M184.539 15.5807C191.592 7.6488 201.451 2.76733 212.035 1.96658C222.619 1.16583 233.1 4.50845 241.266 11.289C240.931 10.9708 240.6 10.65 240.252 10.3409C232.138 3.13117 221.493 -0.56061 210.658 0.0774374C199.822 0.715485 189.684 5.63111 182.472 13.7432C175.261 21.8554 171.567 32.4997 172.202 43.3352C172.838 54.1708 177.751 64.3102 185.861 71.5236C186.209 71.8328 186.567 72.1241 186.922 72.4193C179.231 65.1037 174.684 55.0864 174.24 44.4817C173.795 33.8769 177.488 23.5142 184.539 15.5807Z" fill="#2F2E41"/>
<path d="M216.317 81.5619C230.877 81.5619 242.68 69.7589 242.68 55.1991C242.68 40.6392 230.877 28.8362 216.317 28.8362C201.757 28.8362 189.954 40.6392 189.954 55.1991C189.954 69.7589 201.757 81.5619 216.317 81.5619Z" fill="#FFB8B8"/>
<path d="M197.586 63.5242C197.586 63.5242 201.054 95.4371 195.504 98.9059C189.954 102.375 227.417 107.231 227.417 107.231C227.417 107.231 221.867 72.543 235.742 63.5242H197.586Z" fill="#FFB8B8"/>
<path d="M230.886 93.3559C230.886 93.3559 241.217 88.5319 226.339 90.2501C211.461 91.9684 198.625 85.3777 198.625 85.3777C198.625 85.3777 194.117 80.8682 193.423 85.7245C192.729 90.5808 195.504 99.5997 180.242 100.987C164.979 102.375 151.104 98.2122 145.554 108.619C140.004 119.025 142.779 164.119 142.779 164.119C142.779 164.119 153.185 201.582 161.51 207.132C169.835 212.683 242.68 205.051 242.68 205.051L263.493 167.588V123.881C263.493 123.881 260.718 108.619 241.293 112.781C241.293 112.781 228.805 110.006 229.499 103.762C230.192 97.5184 230.886 93.3559 230.886 93.3559Z" fill="#D0CDE1"/>
<path d="M164.263 233.644C164.692 231.776 164.979 230.719 164.979 230.719L164.757 229.199L162.472 213.679L161.511 207.132C169.834 203.663 171.917 187.706 171.917 187.706L172.231 187.518L173.651 186.668V186.664L178.751 183.605L178.854 183.544L180.914 184.915L185.098 187.706C199.739 198.472 214.647 198.28 223.847 196.584C229.471 195.547 232.967 193.95 232.967 193.95L243.059 190.585L243.372 190.481L243.683 190.527L249.602 191.423L249.709 191.442L250.199 191.515L248.828 200.991L246.841 214.762C252.09 217.542 256.757 222.764 260.838 229.199C261.742 230.624 262.617 232.105 263.465 233.644C264.567 235.635 265.62 237.707 266.623 239.828C266.746 240.08 266.864 240.337 266.983 240.593C267.37 241.424 267.753 242.262 268.124 243.105H162.426C162.564 242.259 162.701 241.451 162.835 240.674C162.842 240.647 162.847 240.62 162.851 240.593C162.9 240.333 162.946 240.08 162.989 239.828C163.456 237.301 163.907 235.191 164.263 233.644Z" fill="#2F2E41"/>
<path d="M160.123 100.294C160.123 100.294 167.754 114.169 164.979 131.513C162.204 148.857 173.304 191.87 173.304 191.87L181.629 189.789C181.629 189.789 176.079 153.713 177.467 145.388C178.854 137.063 178.854 104.456 171.916 100.294C164.979 96.1309 160.123 100.294 160.123 100.294Z" fill="#2F2E41"/>
<path d="M240.805 114.713L243.721 191.523L249.271 194.992C249.271 194.992 257.249 110.7 253.086 110.7H244.617C244.099 110.7 243.587 110.805 243.111 111.01C242.635 111.214 242.206 111.513 241.849 111.888C241.493 112.263 241.216 112.707 241.037 113.193C240.857 113.679 240.778 114.196 240.805 114.713Z" fill="#2F2E41"/>
<path d="M177.12 190.135C179.035 190.135 180.588 188.582 180.588 186.667C180.588 184.751 179.035 183.198 177.12 183.198C175.204 183.198 173.651 184.751 173.651 186.667C173.651 188.582 175.204 190.135 177.12 190.135Z" fill="#E53334"/>
<path d="M246.496 193.604C248.411 193.604 249.964 192.051 249.964 190.135C249.964 188.22 248.411 186.667 246.496 186.667C244.58 186.667 243.027 188.22 243.027 190.135C243.027 192.051 244.58 193.604 246.496 193.604Z" fill="#E53334"/>
<path d="M193.77 22.2454V48.6083H199.875L207.645 40.2831L206.605 48.6083H233.591L231.926 40.2831L235.257 48.6083H239.558V22.2454H193.77Z" fill="#2F2E41"/>
<path d="M189.607 53.4647C190.757 53.4647 191.689 51.7564 191.689 49.649C191.689 47.5417 190.757 45.8334 189.607 45.8334C188.458 45.8334 187.526 47.5417 187.526 49.649C187.526 51.7564 188.458 53.4647 189.607 53.4647Z" fill="#FFB8B8"/>
<path d="M243.027 53.4647C244.176 53.4647 245.108 51.7564 245.108 49.649C245.108 47.5417 244.176 45.8334 243.027 45.8334C241.877 45.8334 240.946 47.5417 240.946 49.649C240.946 51.7564 241.877 53.4647 243.027 53.4647Z" fill="#FFB8B8"/>
<path d="M257.249 189.789C257.249 189.789 225.683 183.892 223.602 194.298C221.52 204.704 258.637 200.195 258.637 200.195L257.249 189.789Z" fill="#FFB8B8"/>
<path d="M256.555 118.331C256.555 118.331 332.175 178.688 318.3 193.257C304.425 207.826 251.699 203.664 251.699 203.664L255.168 186.32L285.693 182.851L270.431 167.588L256.555 168.976V118.331Z" fill="#D0CDE1"/>
<path d="M144.86 218.926L154.573 226.558C154.573 226.558 161.51 248.064 171.917 241.82C182.323 235.577 162.204 213.376 162.204 213.376L150.41 209.214L144.86 218.926Z" fill="#FFB8B8"/>
<path d="M154.573 107.231L144.886 110.146C144.886 110.146 77.5652 159.957 74.7902 173.832C72.0152 187.707 87.9716 195.339 87.9716 195.339L148.329 223.783L154.573 207.133L126.128 192.564C126.128 192.564 128.21 188.401 119.885 187.707C111.559 187.013 110.172 177.995 110.172 177.995C110.172 177.995 126.822 152.325 135.841 157.876C144.86 163.426 147.635 167.588 147.635 167.588L154.573 107.231Z" fill="#D0CDE1"/>
<path d="M292.73 236.022V238.346C292.731 238.984 292.613 239.616 292.381 240.21C292.279 240.475 292.154 240.731 292.01 240.976C291.554 241.742 290.906 242.376 290.131 242.816C289.356 243.257 288.48 243.488 287.588 243.488H116.625C115.733 243.488 114.857 243.257 114.082 242.816C113.307 242.376 112.659 241.742 112.203 240.976C112.059 240.731 111.934 240.475 111.832 240.21C111.6 239.616 111.482 238.984 111.483 238.346V236.022C111.483 235.347 111.616 234.678 111.874 234.054C112.133 233.43 112.511 232.863 112.989 232.386C113.466 231.908 114.033 231.529 114.657 231.271C115.281 231.013 115.95 230.88 116.625 230.88H126.48V229.797C126.479 229.769 126.485 229.741 126.496 229.715C126.507 229.689 126.522 229.665 126.542 229.645C126.562 229.625 126.586 229.609 126.612 229.598C126.638 229.588 126.666 229.582 126.694 229.582H131.836C131.864 229.582 131.892 229.588 131.918 229.598C131.944 229.609 131.967 229.625 131.987 229.645C132.007 229.665 132.023 229.689 132.034 229.715C132.045 229.741 132.05 229.769 132.05 229.797V230.88H135.262V229.797C135.262 229.769 135.268 229.741 135.278 229.715C135.289 229.689 135.305 229.665 135.325 229.645C135.345 229.625 135.368 229.609 135.395 229.598C135.421 229.588 135.448 229.582 135.477 229.582H140.618C140.646 229.582 140.674 229.588 140.7 229.598C140.726 229.609 140.75 229.625 140.77 229.645C140.79 229.665 140.806 229.689 140.816 229.715C140.827 229.741 140.833 229.769 140.833 229.797V230.88H144.049V229.797C144.049 229.769 144.054 229.741 144.065 229.715C144.076 229.689 144.091 229.665 144.111 229.645C144.131 229.625 144.155 229.609 144.181 229.598C144.207 229.588 144.235 229.582 144.263 229.582H149.405C149.433 229.582 149.461 229.588 149.487 229.598C149.513 229.609 149.537 229.625 149.557 229.645C149.576 229.665 149.592 229.689 149.603 229.715C149.614 229.741 149.619 229.769 149.619 229.797V230.88H152.831V229.797C152.831 229.769 152.837 229.741 152.848 229.715C152.858 229.689 152.874 229.665 152.894 229.645C152.914 229.625 152.938 229.609 152.964 229.598C152.99 229.588 153.018 229.582 153.046 229.582H158.187C158.216 229.582 158.244 229.588 158.27 229.598C158.296 229.609 158.319 229.625 158.339 229.645C158.359 229.665 158.375 229.689 158.386 229.715C158.396 229.741 158.402 229.769 158.402 229.797V230.88H161.614V229.797C161.614 229.769 161.619 229.741 161.63 229.715C161.641 229.689 161.657 229.665 161.677 229.645C161.697 229.625 161.72 229.609 161.746 229.598C161.772 229.588 161.8 229.582 161.828 229.582H166.97C166.998 229.582 167.026 229.588 167.052 229.598C167.078 229.609 167.102 229.625 167.122 229.645C167.142 229.665 167.158 229.689 167.168 229.715C167.179 229.741 167.185 229.769 167.185 229.797V230.88H170.4V229.797C170.4 229.769 170.406 229.741 170.417 229.715C170.427 229.689 170.443 229.665 170.463 229.645C170.483 229.625 170.507 229.609 170.533 229.598C170.559 229.588 170.587 229.582 170.615 229.582H175.757C175.785 229.582 175.813 229.588 175.839 229.598C175.865 229.609 175.888 229.625 175.908 229.645C175.928 229.665 175.944 229.689 175.955 229.715C175.966 229.741 175.971 229.769 175.971 229.797V230.88H179.183V229.797C179.183 229.769 179.189 229.741 179.199 229.715C179.21 229.689 179.226 229.665 179.246 229.645C179.266 229.625 179.289 229.609 179.315 229.598C179.341 229.588 179.369 229.582 179.398 229.582H219.674C219.702 229.582 219.73 229.588 219.756 229.598C219.782 229.609 219.806 229.625 219.825 229.645C219.845 229.665 219.861 229.689 219.872 229.715C219.883 229.741 219.888 229.769 219.888 229.797V230.88H223.104V229.797C223.104 229.769 223.11 229.741 223.12 229.715C223.131 229.689 223.147 229.665 223.167 229.645C223.187 229.625 223.21 229.609 223.236 229.598C223.262 229.588 223.29 229.582 223.319 229.582H228.46C228.517 229.583 228.571 229.606 228.611 229.646C228.651 229.686 228.674 229.74 228.675 229.797V230.88H231.887V229.797C231.887 229.769 231.892 229.741 231.903 229.715C231.914 229.689 231.93 229.665 231.949 229.645C231.969 229.625 231.993 229.609 232.019 229.598C232.045 229.588 232.073 229.582 232.101 229.582H237.243C237.271 229.582 237.299 229.588 237.325 229.598C237.351 229.609 237.375 229.625 237.395 229.645C237.415 229.665 237.43 229.689 237.441 229.715C237.452 229.741 237.457 229.769 237.457 229.797V230.88H240.669V229.797C240.669 229.769 240.675 229.741 240.686 229.715C240.696 229.689 240.712 229.665 240.732 229.645C240.752 229.625 240.776 229.609 240.802 229.598C240.828 229.588 240.856 229.582 240.884 229.582H246.026C246.054 229.582 246.082 229.588 246.108 229.598C246.134 229.609 246.157 229.625 246.177 229.645C246.197 229.665 246.213 229.689 246.224 229.715C246.234 229.741 246.24 229.769 246.24 229.797V230.88H249.456V229.797C249.456 229.769 249.461 229.741 249.472 229.715C249.483 229.689 249.499 229.665 249.519 229.645C249.539 229.625 249.562 229.609 249.588 229.598C249.614 229.588 249.642 229.582 249.67 229.582H254.812C254.868 229.583 254.922 229.606 254.962 229.646C255.001 229.686 255.023 229.74 255.023 229.797V230.88H258.239V229.797C258.239 229.769 258.244 229.741 258.255 229.715C258.266 229.689 258.281 229.665 258.301 229.645C258.321 229.625 258.345 229.609 258.371 229.598C258.397 229.588 258.425 229.582 258.453 229.582H263.595C263.623 229.582 263.651 229.588 263.677 229.598C263.703 229.609 263.727 229.625 263.746 229.645C263.766 229.665 263.782 229.689 263.793 229.715C263.804 229.741 263.809 229.769 263.809 229.797V230.88H267.021V229.797C267.021 229.769 267.027 229.741 267.037 229.715C267.048 229.689 267.064 229.665 267.084 229.645C267.104 229.625 267.128 229.609 267.154 229.598C267.18 229.588 267.207 229.582 267.236 229.582H272.377C272.406 229.582 272.433 229.588 272.459 229.598C272.486 229.609 272.509 229.625 272.529 229.645C272.549 229.665 272.565 229.689 272.576 229.715C272.586 229.741 272.592 229.769 272.592 229.797V230.88H287.588C288.263 230.88 288.932 231.013 289.556 231.271C290.18 231.529 290.747 231.908 291.224 232.386C291.702 232.863 292.081 233.43 292.339 234.054C292.597 234.678 292.73 235.347 292.73 236.022Z" fill="#3F3D56"/>
<path d="M342.443 240.208H61.811V240.974H342.443V240.208Z" fill="#3F3D56"/>
<path d="M278.964 138.152H215.24V136.838H186.346V138.152H122.36C121.217 138.152 120.12 138.606 119.312 139.414C118.503 140.222 118.049 141.319 118.049 142.462V229.719C118.049 230.862 118.503 231.958 119.312 232.767C120.12 233.575 121.217 234.029 122.36 234.029H278.964C280.107 234.029 281.203 233.575 282.011 232.767C282.82 231.958 283.274 230.862 283.274 229.719V142.462C283.274 141.896 283.162 141.335 282.946 140.812C282.729 140.289 282.412 139.814 282.011 139.414C281.611 139.014 281.136 138.696 280.613 138.48C280.09 138.263 279.53 138.152 278.964 138.152Z" fill="#3F3D56"/>
<path d="M200.787 178.186C206.073 178.186 210.358 173.901 210.358 168.615C210.358 163.329 206.073 159.044 200.787 159.044C195.501 159.044 191.216 163.329 191.216 168.615C191.216 173.901 195.501 178.186 200.787 178.186Z" stroke="#D0CDE1" stroke-width="2" stroke-miterlimit="10"/>
<path d="M197.724 181.632C203.01 181.632 207.296 177.347 207.296 172.061C207.296 166.774 203.01 162.489 197.724 162.489C192.438 162.489 188.153 166.774 188.153 172.061C188.153 177.347 192.438 181.632 197.724 181.632Z" fill="#D0CDE1"/>
<path d="M82.3213 254.043H9.96191V254.909H82.3213V254.043Z" fill="#3F3D56"/>
<path d="M398.176 254.043H325.816V254.909H398.176V254.043Z" fill="#3F3D56"/>
<path d="M52.1214 226.158C44.4984 238.603 47.1211 254.084 47.1211 254.084C47.1211 254.084 62.1031 249.387 69.7261 236.942C77.3491 224.496 74.7264 209.016 74.7264 209.016C74.7264 209.016 59.7444 213.713 52.1214 226.158Z" fill="#3F3D56"/>
<path d="M46.8101 254.187L46.3766 254.118C46.2199 254.093 30.6191 251.508 21.2759 240.33C11.9327 229.151 12.1575 213.339 12.1606 213.18L12.1699 212.741L12.6033 212.81C12.76 212.835 28.3608 215.42 37.704 226.599C47.0473 237.778 46.8224 253.59 46.8194 253.748L46.8101 254.187Z" fill="#E53334"/>
<path d="M47.4254 254.58L47.0067 254.449C46.8553 254.402 31.7995 249.565 24.1895 237.142C16.5795 224.718 19.1118 209.108 19.138 208.952L19.2113 208.519L19.63 208.651C19.7814 208.698 34.8372 213.534 42.4472 225.958C50.0572 238.382 47.5249 253.991 47.4987 254.148L47.4254 254.58ZM19.8289 209.527C19.4824 212.147 18.1009 225.735 24.8423 236.742C31.5841 247.748 44.317 252.691 46.8078 253.573C47.1544 250.953 48.5358 237.364 41.7944 226.358C35.0526 215.352 22.3197 210.409 19.8289 209.527H19.8289Z" fill="#3F3D56"/>
<path d="M47.5966 213.758C52.2484 213.758 56.0194 209.987 56.0194 205.335C56.0194 200.683 52.2484 196.912 47.5966 196.912C42.9448 196.912 39.1738 200.683 39.1738 205.335C39.1738 209.987 42.9448 213.758 47.5966 213.758Z" fill="#3F3D56"/>
<path d="M153.061 98.8734L104.742 50.1733H81.9307V49.4076H105.062L105.174 49.5213L153.605 98.3351L153.061 98.8734Z" fill="#3F3D56"/>
<path d="M266.547 97.342L314.865 48.6419H337.677V47.8762H314.546L314.433 47.9899L266.002 96.8038L266.547 97.342Z" fill="#3F3D56"/>
<path d="M55.8966 26.1641H0V37.2198H55.8966V26.1641Z" fill="#D0CDE1"/>
<path d="M55.8966 43.1289H0V54.1846H55.8966V43.1289Z" fill="#D0CDE1"/>
<path d="M55.8966 60.0936H0V71.1493H55.8966V60.0936Z" fill="#D0CDE1"/>
<path opacity="0.15" d="M23.1239 26.1641H0V37.2198H23.1239V26.1641Z" fill="black"/>
<path opacity="0.15" d="M7.48615 43.1289H0V54.1846H7.48615V43.1289Z" fill="black"/>
<path opacity="0.15" d="M37.2644 60.0936H0V71.1493H37.2644V60.0936Z" fill="black"/>
<path d="M421.522 28.6478H365.54V33.6364H421.522V28.6478Z" fill="#D0CDE1"/>
<path d="M355.654 28.0021H344.568V39.0877H355.654V28.0021Z" fill="#E53334"/>
<path d="M355.654 44.6305H344.568V55.7161H355.654V44.6305Z" fill="#E53334"/>
<path d="M355.654 61.2589H344.568V72.3445H355.654V61.2589Z" fill="#E53334"/>
<path d="M358.717 36.7907H346.865V24.9392H358.717V36.7907ZM347.631 36.025H357.951V25.7049H347.631V36.025Z" fill="#3F3D56"/>
<path d="M421.522 45.2762H365.54V50.2648H421.522V45.2762Z" fill="#D0CDE1"/>
<path d="M358.717 53.419H346.865V41.5677H358.717V53.419ZM347.631 52.6533H357.951V42.3335H347.631V52.6533Z" fill="#3F3D56"/>
<path d="M421.522 61.9047H365.54V66.8932H421.522V61.9047Z" fill="#D0CDE1"/>
<path d="M358.717 70.0473H346.865V58.196H358.717V70.0473ZM347.631 69.2816H357.951V58.9618H347.631V69.2816Z" fill="#3F3D56"/>
<path d="M72.3593 37.922C75.7424 37.922 78.485 35.1794 78.485 31.7963C78.485 28.4132 75.7424 25.6707 72.3593 25.6707C68.9762 25.6707 66.2336 28.4132 66.2336 31.7963C66.2336 35.1794 68.9762 37.922 72.3593 37.922Z" fill="#E53334"/>
<path d="M72.3593 56.2989C75.7424 56.2989 78.485 53.5564 78.485 50.1733C78.485 46.7902 75.7424 44.0476 72.3593 44.0476C68.9762 44.0476 66.2336 46.7902 66.2336 50.1733C66.2336 53.5564 68.9762 56.2989 72.3593 56.2989Z" fill="#E53334"/>
<path d="M72.3593 72.7617C75.7424 72.7617 78.485 70.0191 78.485 66.636C78.485 63.2529 75.7424 60.5104 72.3593 60.5104C68.9762 60.5104 66.2336 63.2529 66.2336 66.636C66.2336 70.0191 68.9762 72.7617 72.3593 72.7617Z" fill="#E53334"/>
<path d="M69.2966 36.7734C68.0093 36.7734 66.751 36.3917 65.6807 35.6765C64.6103 34.9613 63.7761 33.9448 63.2835 32.7556C62.7909 31.5663 62.662 30.2576 62.9131 28.9951C63.1643 27.7326 63.7842 26.5729 64.6944 25.6627C65.6046 24.7524 66.7643 24.1325 68.0269 23.8814C69.2894 23.6303 70.598 23.7592 71.7873 24.2518C72.9766 24.7444 73.9931 25.5786 74.7082 26.6489C75.4234 27.7192 75.8051 28.9776 75.8051 30.2649C75.8032 31.9904 75.1168 33.6448 73.8967 34.8649C72.6765 36.0851 71.0222 36.7714 69.2966 36.7734ZM69.2966 24.5221C68.1608 24.5221 67.0505 24.8589 66.1061 25.4899C65.1617 26.1209 64.4256 27.0178 63.9909 28.0672C63.5563 29.1165 63.4426 30.2712 63.6641 31.3852C63.8857 32.4992 64.4327 33.5225 65.2358 34.3256C66.039 35.1288 67.0622 35.6757 68.1762 35.8973C69.2902 36.1189 70.4449 36.0052 71.4943 35.5705C72.5436 35.1359 73.4405 34.3998 74.0716 33.4554C74.7026 32.511 75.0394 31.4007 75.0394 30.2649C75.0377 28.7423 74.4321 27.2826 73.3555 26.206C72.2789 25.1294 70.8192 24.5238 69.2966 24.5221Z" fill="#3F3D56"/>
<path d="M69.2966 55.1504C68.0093 55.1504 66.751 54.7687 65.6807 54.0536C64.6103 53.3384 63.7761 52.3219 63.2835 51.1326C62.7909 49.9434 62.662 48.6347 62.9131 47.3722C63.1643 46.1097 63.7842 44.95 64.6944 44.0397C65.6046 43.1295 66.7643 42.5096 68.0269 42.2585C69.2894 42.0074 70.598 42.1362 71.7873 42.6289C72.9766 43.1215 73.9931 43.9557 74.7082 45.026C75.4234 46.0963 75.8051 47.3547 75.8051 48.6419C75.8032 50.3675 75.1168 52.0219 73.8967 53.242C72.6765 54.4622 71.0222 55.1485 69.2966 55.1504ZM69.2966 42.8991C68.1608 42.8991 67.0505 43.2359 66.1061 43.867C65.1617 44.498 64.4256 45.3949 63.9909 46.4443C63.5563 47.4936 63.4426 48.6483 63.6641 49.7623C63.8857 50.8763 64.4327 51.8996 65.2358 52.7027C66.039 53.5059 67.0622 54.0528 68.1762 54.2744C69.2902 54.496 70.4449 54.3823 71.4943 53.9476C72.5436 53.5129 73.4405 52.7769 74.0716 51.8325C74.7026 50.8881 75.0394 49.7778 75.0394 48.6419C75.0377 47.1194 74.4321 45.6597 73.3555 44.5831C72.2789 43.5065 70.8192 42.9009 69.2966 42.8991Z" fill="#3F3D56"/>
<path d="M69.2966 71.6131C68.0093 71.6131 66.751 71.2314 65.6807 70.5162C64.6103 69.801 63.7761 68.7846 63.2835 67.5953C62.7909 66.406 62.662 65.0974 62.9131 63.8348C63.1643 62.5723 63.7842 61.4126 64.6944 60.5024C65.6046 59.5921 66.7643 58.9723 68.0269 58.7211C69.2894 58.47 70.598 58.5989 71.7873 59.0915C72.9766 59.5841 73.9931 60.4183 74.7082 61.4886C75.4234 62.559 75.8051 63.8173 75.8051 65.1046C75.8032 66.8302 75.1168 68.4845 73.8967 69.7047C72.6765 70.9248 71.0222 71.6112 69.2966 71.6131ZM69.2966 59.3618C68.1608 59.3618 67.0505 59.6986 66.1061 60.3296C65.1617 60.9606 64.4256 61.8575 63.9909 62.9069C63.5563 63.9563 63.4426 65.111 63.6641 66.2249C63.8857 67.3389 64.4327 68.3622 65.2358 69.1654C66.039 69.9685 67.0622 70.5155 68.1762 70.737C69.2902 70.9586 70.4449 70.8449 71.4943 70.4102C72.5436 69.9756 73.4405 69.2395 74.0716 68.2951C74.7026 67.3507 75.0394 66.2404 75.0394 65.1046C75.0377 63.582 74.4321 62.1223 73.3555 61.0457C72.2789 59.9691 70.8192 59.3635 69.2966 59.3618Z" fill="#3F3D56"/>
<path d="M378.642 228.2H377.877V222.457C377.877 222.153 377.998 221.861 378.213 221.646C378.429 221.43 378.721 221.309 379.025 221.309H380.939C381.041 221.309 381.138 221.268 381.21 221.197C381.282 221.125 381.322 221.028 381.322 220.926V217.098C381.322 216.996 381.282 216.899 381.21 216.827C381.138 216.755 381.041 216.715 380.939 216.715H379.025C378.721 216.714 378.429 216.593 378.213 216.378C377.998 216.163 377.877 215.871 377.877 215.566V213.652C377.877 213.55 377.836 213.453 377.764 213.381C377.693 213.309 377.595 213.269 377.494 213.269H374.048C373.744 213.269 373.452 213.148 373.236 212.932C373.021 212.717 372.9 212.425 372.9 212.12V211.738C372.899 211.636 372.859 211.539 372.787 211.467C372.716 211.395 372.618 211.355 372.517 211.355H358.734C358.632 211.355 358.535 211.395 358.463 211.467C358.392 211.539 358.351 211.636 358.351 211.738V212.12C358.351 212.425 358.23 212.717 358.014 212.932C357.799 213.148 357.507 213.269 357.203 213.269H353.757C353.655 213.269 353.558 213.309 353.486 213.381C353.414 213.453 353.374 213.55 353.374 213.652V215.566C353.374 215.871 353.253 216.163 353.037 216.378C352.822 216.593 352.53 216.714 352.225 216.715H350.311C350.21 216.715 350.112 216.755 350.041 216.827C349.969 216.899 349.928 216.996 349.928 217.098V220.926C349.928 221.028 349.969 221.125 350.041 221.197C350.112 221.268 350.21 221.309 350.311 221.309H352.608C352.913 221.309 353.205 221.43 353.42 221.646C353.635 221.861 353.757 222.153 353.757 222.457V228.2H352.991V222.457C352.991 222.356 352.951 222.259 352.879 222.187C352.807 222.115 352.71 222.075 352.608 222.075H350.311C350.007 222.074 349.715 221.953 349.499 221.738C349.284 221.523 349.163 221.231 349.163 220.926V217.098C349.163 216.793 349.284 216.501 349.499 216.286C349.715 216.07 350.007 215.949 350.311 215.949H352.225C352.327 215.949 352.424 215.909 352.496 215.837C352.568 215.765 352.608 215.668 352.608 215.566V213.652C352.609 213.347 352.73 213.055 352.945 212.84C353.16 212.625 353.452 212.504 353.757 212.503H357.203C357.304 212.503 357.401 212.463 357.473 212.391C357.545 212.319 357.585 212.222 357.585 212.12V211.738C357.586 211.433 357.707 211.141 357.922 210.926C358.137 210.71 358.429 210.589 358.734 210.589H372.517C372.821 210.589 373.113 210.71 373.328 210.926C373.544 211.141 373.665 211.433 373.665 211.738V212.12C373.665 212.222 373.706 212.319 373.777 212.391C373.849 212.463 373.947 212.503 374.048 212.503H377.494C377.798 212.504 378.09 212.625 378.306 212.84C378.521 213.055 378.642 213.347 378.642 213.652V215.566C378.642 215.668 378.683 215.765 378.755 215.837C378.826 215.909 378.924 215.949 379.025 215.949H380.939C381.244 215.949 381.536 216.07 381.751 216.286C381.967 216.501 382.088 216.793 382.088 217.098V220.926C382.088 221.231 381.967 221.523 381.751 221.738C381.536 221.953 381.244 222.074 380.939 222.075H379.025C378.924 222.075 378.826 222.115 378.755 222.187C378.683 222.259 378.642 222.356 378.642 222.457V228.2Z" fill="#3F3D56"/>
<path d="M377.494 255H354.14C353.835 255 353.543 254.878 353.328 254.663C353.112 254.448 352.991 254.156 352.991 253.851V237.389H353.757V253.851C353.757 253.953 353.797 254.05 353.869 254.122C353.941 254.194 354.038 254.234 354.14 254.234H377.494C377.595 254.234 377.692 254.194 377.764 254.122C377.836 254.05 377.876 253.953 377.876 253.851V237.389H378.642V253.851C378.642 254.156 378.521 254.448 378.305 254.663C378.09 254.878 377.798 255 377.494 255Z" fill="#3F3D56"/>
<path d="M382.471 230.88H353.757C353.334 230.88 352.991 231.223 352.991 231.646V239.303C352.991 239.726 353.334 240.069 353.757 240.069H382.471C382.894 240.069 383.236 239.726 383.236 239.303V231.646C383.236 231.223 382.894 230.88 382.471 230.88Z" fill="#E53334"/>
<path d="M379.982 237.772H351.268C350.964 237.771 350.672 237.65 350.456 237.435C350.241 237.219 350.12 236.928 350.12 236.623V228.966C350.12 228.661 350.241 228.369 350.456 228.154C350.672 227.939 350.964 227.818 351.268 227.817H379.982C380.287 227.818 380.579 227.939 380.794 228.154C381.009 228.369 381.13 228.661 381.131 228.966V236.623C381.13 236.928 381.009 237.219 380.794 237.435C380.579 237.65 380.287 237.771 379.982 237.772ZM351.268 228.583C351.167 228.583 351.069 228.624 350.998 228.695C350.926 228.767 350.885 228.864 350.885 228.966V236.623C350.885 236.725 350.926 236.822 350.998 236.894C351.069 236.965 351.167 237.006 351.268 237.006H379.982C380.084 237.006 380.181 236.965 380.253 236.894C380.325 236.822 380.365 236.725 380.365 236.623V228.966C380.365 228.864 380.325 228.767 380.253 228.695C380.181 228.624 380.084 228.583 379.982 228.583H351.268Z" fill="#3F3D56"/>
<path d="M364.86 207.909C363.842 201.053 363.573 194.106 364.058 187.192L364.86 175.749C360.441 184.542 361.439 196.114 364.86 207.909V207.909Z" fill="#D0CDE1"/>
<path d="M368.305 209.823C367.815 205.732 367.686 201.606 367.919 197.492L368.305 190.681C366.179 195.914 366.66 202.802 368.305 209.823Z" fill="#D0CDE1"/>
</g>
<defs>
<clipPath id="clip0">
<rect width="421.522" height="255" fill="white"/>
</clipPath>
</defs>
</svg>
