<svg width="381" height="255" viewBox="0 0 381 255" fill="none" xmlns="http://www.w3.org/2000/svg">
<g clip-path="url(#clip0)">
<g opacity="0.2">
<path opacity="0.2" d="M131.849 234.396C132.041 235.18 132.295 235.946 132.61 236.689C137.503 234.769 142.45 232.928 147.451 231.167C147.409 230.96 147.366 230.742 147.314 230.527C146.81 228.314 145.734 226.272 144.195 224.604C142.195 222.494 139.618 221.474 137.112 222.096C134.606 222.719 132.786 224.85 131.955 227.653C131.334 229.854 131.297 232.177 131.849 234.396Z" fill="#3F3D56"/>
<path opacity="0.2" d="M138.88 230.2C143.175 229.242 145.617 223.809 144.334 218.067C143.05 212.324 138.527 208.446 134.231 209.405C129.936 210.364 127.494 215.796 128.777 221.538C130.061 227.281 134.584 231.159 138.88 230.2Z" fill="#3F3D56"/>
<path opacity="0.2" d="M135.865 217.532C140.161 216.574 142.603 211.142 141.319 205.399C140.036 199.657 135.513 195.779 131.217 196.737C126.921 197.696 124.48 203.128 125.763 208.871C127.047 214.613 131.57 218.491 135.865 217.532Z" fill="#3F3D56"/>
<path opacity="0.2" d="M132.845 204.873C137.14 203.914 139.582 198.482 138.299 192.739C137.015 186.997 132.492 183.119 128.196 184.077C123.901 185.036 121.459 190.468 122.742 196.211C124.026 201.953 128.549 205.831 132.845 204.873Z" fill="#3F3D56"/>
<path opacity="0.2" d="M129.824 192.209C134.12 191.25 136.562 185.818 135.278 180.076C133.995 174.333 129.472 170.455 125.176 171.414C120.88 172.372 118.438 177.805 119.722 183.547C121.005 189.29 125.528 193.168 129.824 192.209Z" fill="#3F3D56"/>
<path opacity="0.2" d="M135.788 87.9099C136.521 86.2683 137.139 84.5784 137.64 82.8521L116.519 84.5123L138.534 79.1907C139.586 73.659 139.453 67.9674 138.143 62.4908C136.995 57.6425 134.937 53.0559 132.078 48.9741L106.31 71.9944L128.618 44.7463C119.511 35.0317 105.736 30.4101 92.0463 33.8429C71.5904 38.9534 59.055 60.071 64.0466 81.0091C66.0308 89.4664 70.7876 97.0183 77.5607 102.464C76.4228 105.021 75.5579 107.69 74.9804 110.427L104.698 117.863L74.2763 115.228C73.9125 119.472 74.231 123.747 75.2198 127.89C77.2074 136.347 81.9649 143.898 88.7373 149.346C85.1783 157.33 84.3566 166.266 86.3999 174.765C91.3916 195.703 112.02 208.53 132.476 203.423C152.932 198.316 165.467 177.199 160.476 156.26C158.488 147.804 153.73 140.253 146.958 134.805C150.517 126.821 151.339 117.885 149.295 109.386C147.317 100.922 142.562 93.3629 135.788 87.9099Z" fill="#23A19A"/>
<path opacity="0.1" d="M75.2268 127.876C77.2145 136.333 81.972 143.884 88.7444 149.332C85.1853 157.316 84.3637 166.252 86.407 174.751C91.3986 195.689 112.027 208.516 132.483 203.409C152.939 198.302 165.474 177.185 160.483 156.246C158.495 147.79 153.737 140.238 146.965 134.791C150.394 127.103 74.213 123.631 75.2268 127.876Z" fill="black"/>
</g>
<g opacity="0.2">
<path opacity="0.2" d="M226.786 230.531C226.657 231.446 226.607 232.371 226.634 233.295C232.771 233.394 238.931 233.6 245.115 233.914C245.158 233.671 245.2 233.425 245.235 233.176C245.634 230.597 245.336 227.958 244.373 225.533C243.098 222.43 240.722 220.211 237.747 219.782C234.773 219.353 231.872 220.816 229.778 223.426C228.165 225.485 227.132 227.938 226.786 230.531Z" fill="#3F3D56"/>
<path opacity="0.2" d="M247.371 218.44C248.33 211.776 244.976 205.78 239.88 205.048C234.784 204.316 229.876 209.125 228.917 215.79C227.959 222.454 231.312 228.45 236.408 229.181C241.504 229.913 246.412 225.104 247.371 218.44Z" fill="#3F3D56"/>
<path opacity="0.2" d="M249.492 203.69C250.45 197.026 247.097 191.03 242.001 190.299C236.905 189.567 231.997 194.376 231.038 201.04C230.079 207.704 233.433 213.7 238.529 214.432C243.625 215.164 248.533 210.355 249.492 203.69Z" fill="#3F3D56"/>
<path opacity="0.2" d="M251.612 188.945C252.57 182.28 249.217 176.285 244.121 175.553C239.025 174.821 234.117 179.63 233.158 186.294C232.2 192.958 235.553 198.954 240.649 199.686C245.745 200.418 250.653 195.609 251.612 188.945Z" fill="#3F3D56"/>
<path opacity="0.2" d="M253.736 174.196C254.695 167.531 251.341 161.536 246.245 160.804C241.15 160.072 236.241 164.881 235.283 171.545C234.324 178.21 237.678 184.205 242.773 184.937C247.869 185.669 252.777 180.86 253.736 174.196Z" fill="#3F3D56"/>
<path opacity="0.2" d="M293.55 76.8939C295.042 75.4689 296.432 73.941 297.711 72.3215L274.044 64.8931L300.231 68.85C303.532 63.7435 305.755 58.018 306.765 52.0236C307.775 46.0292 307.551 39.892 306.106 33.9871L268.313 47.1556L304.177 27.9867C301.893 22.3031 298.462 17.1505 294.098 12.8497C289.733 8.54887 284.529 5.19208 278.81 2.98842C273.091 0.784766 266.979 -0.218549 260.854 0.0409878C254.73 0.300524 248.725 1.81735 243.213 4.49697C237.701 7.17659 232.8 10.9616 228.816 15.6162C224.832 20.2708 221.85 25.6952 220.055 31.5516C218.261 37.408 217.693 43.5708 218.386 49.6562C219.079 55.7415 221.02 61.619 224.086 66.9225C221.767 69.1361 219.693 71.5924 217.901 74.249L247.016 95.0992L215.084 79.0324C211.725 85.6515 210.071 93.0031 210.271 100.422C210.472 107.841 212.521 115.092 216.232 121.521C210.168 127.297 205.854 134.662 203.782 142.773C201.709 150.884 201.963 159.413 204.514 167.387C207.065 175.36 211.811 182.456 218.207 187.862C224.604 193.268 232.394 196.766 240.687 197.957C248.98 199.148 257.441 197.983 265.102 194.596C272.764 191.208 279.317 185.735 284.012 178.802C288.707 171.87 291.355 163.756 291.653 155.391C291.951 147.025 289.886 138.744 285.696 131.496C292.943 124.592 297.657 115.455 299.081 105.553C300.506 95.6504 298.558 85.557 293.55 76.8939Z" fill="#23A19A"/>
<path opacity="0.1" d="M210.702 92.8622C209.262 102.765 211.211 112.863 216.232 121.521C210.168 127.297 205.854 134.662 203.782 142.773C201.709 150.883 201.963 159.413 204.514 167.387C207.065 175.36 211.811 182.456 218.207 187.862C224.604 193.268 232.394 196.766 240.687 197.957C248.98 199.148 257.441 197.983 265.102 194.596C272.764 191.208 279.317 185.735 284.012 178.802C288.707 171.87 291.355 163.756 291.653 155.391C291.951 147.025 289.886 138.744 285.696 131.496C292.701 124.83 211.416 87.9064 210.702 92.8622Z" fill="black"/>
</g>
<path opacity="0.1" d="M190.443 255C295.622 255 380.886 250.118 380.886 244.097C380.886 238.075 295.622 233.193 190.443 233.193C85.2643 233.193 0 238.075 0 244.097C0 250.118 85.2643 255 190.443 255Z" fill="#23A19A"/>
<path d="M314.953 239.703C319.871 239.703 323.859 238.937 323.859 237.991C323.859 237.045 319.871 236.278 314.953 236.278C310.034 236.278 306.047 237.045 306.047 237.991C306.047 238.937 310.034 239.703 314.953 239.703Z" fill="#23A19A"/>
<path d="M314.805 238.624C315.378 238.624 315.843 238.016 315.843 237.266C315.843 236.516 315.378 235.908 314.805 235.908C314.231 235.908 313.766 236.516 313.766 237.266C313.766 238.016 314.231 238.624 314.805 238.624Z" fill="#3F3D56"/>
<path d="M314.805 236.964C315.378 236.964 315.843 236.356 315.843 235.606C315.843 234.856 315.378 234.248 314.805 234.248C314.231 234.248 313.766 234.856 313.766 235.606C313.766 236.356 314.231 236.964 314.805 236.964Z" fill="#3F3D56"/>
<path d="M314.805 235.307C315.378 235.307 315.843 234.699 315.843 233.949C315.843 233.199 315.378 232.592 314.805 232.592C314.231 232.592 313.766 233.199 313.766 233.949C313.766 234.699 314.231 235.307 314.805 235.307Z" fill="#3F3D56"/>
<path d="M314.805 233.65C315.378 233.65 315.843 233.043 315.843 232.293C315.843 231.543 315.378 230.935 314.805 230.935C314.231 230.935 313.766 231.543 313.766 232.293C313.766 233.043 314.231 233.65 314.805 233.65Z" fill="#3F3D56"/>
<path d="M314.805 231.99C315.378 231.99 315.843 231.382 315.843 230.633C315.843 229.883 315.378 229.275 314.805 229.275C314.231 229.275 313.766 229.883 313.766 230.633C313.766 231.382 314.231 231.99 314.805 231.99Z" fill="#3F3D56"/>
<path d="M314.805 230.334C315.378 230.334 315.843 229.726 315.843 228.976C315.843 228.226 315.378 227.618 314.805 227.618C314.231 227.618 313.766 228.226 313.766 228.976C313.766 229.726 314.231 230.334 314.805 230.334Z" fill="#3F3D56"/>
<path d="M314.805 228.677C315.378 228.677 315.843 228.069 315.843 227.319C315.843 226.57 315.378 225.962 314.805 225.962C314.231 225.962 313.766 226.57 313.766 227.319C313.766 228.069 314.231 228.677 314.805 228.677Z" fill="#3F3D56"/>
<path d="M318.684 215.976C318.827 215.796 318.956 215.605 319.071 215.406L316.347 214.96L319.293 214.981C319.575 214.366 319.729 213.7 319.746 213.024C319.762 212.348 319.64 211.676 319.388 211.049L315.435 213.099L319.082 210.419C318.742 209.826 318.283 209.309 317.733 208.902C317.184 208.494 316.556 208.204 315.89 208.05C315.223 207.896 314.532 207.881 313.859 208.006C313.187 208.132 312.547 208.394 311.981 208.778C311.414 209.161 310.933 209.658 310.568 210.235C310.202 210.813 309.96 211.46 309.856 212.136C309.753 212.812 309.79 213.502 309.965 214.163C310.141 214.823 310.451 215.441 310.876 215.976C310.656 216.257 310.466 216.56 310.31 216.88L313.83 218.716L310.06 217.45C309.795 218.234 309.732 219.071 309.874 219.886C310.017 220.7 310.362 221.466 310.876 222.114C310.3 222.846 309.941 223.725 309.842 224.651C309.742 225.577 309.905 226.513 310.312 227.35C310.72 228.188 311.355 228.894 312.145 229.389C312.935 229.883 313.848 230.145 314.78 230.145C315.712 230.145 316.626 229.883 317.416 229.389C318.206 228.894 318.841 228.188 319.248 227.35C319.655 226.513 319.818 225.577 319.719 224.651C319.619 223.725 319.26 222.846 318.684 222.114C319.373 221.239 319.747 220.159 319.747 219.047C319.747 217.934 319.373 216.854 318.684 215.98V215.976Z" fill="#23A19A"/>
<path opacity="0.1" d="M309.813 219.043C309.81 220.155 310.182 221.236 310.869 222.11C310.293 222.842 309.934 223.722 309.835 224.648C309.735 225.574 309.898 226.509 310.305 227.347C310.712 228.185 311.347 228.891 312.138 229.385C312.928 229.879 313.841 230.141 314.773 230.141C315.705 230.141 316.619 229.879 317.409 229.385C318.199 228.891 318.834 228.185 319.241 227.347C319.648 226.509 319.811 225.574 319.712 224.648C319.612 223.722 319.253 222.842 318.677 222.11C319.349 221.266 309.813 218.488 309.813 219.043Z" fill="black"/>
<path d="M110.429 253.481C117 253.481 122.327 252.457 122.327 251.194C122.327 249.932 117 248.908 110.429 248.908C103.858 248.908 98.5305 249.932 98.5305 251.194C98.5305 252.457 103.858 253.481 110.429 253.481Z" fill="#23A19A"/>
<path d="M110.228 252.035C110.994 252.035 111.615 251.224 111.615 250.224C111.615 249.223 110.994 248.412 110.228 248.412C109.462 248.412 108.841 249.223 108.841 250.224C108.841 251.224 109.462 252.035 110.228 252.035Z" fill="#3F3D56"/>
<path d="M110.228 249.819C110.994 249.819 111.615 249.008 111.615 248.008C111.615 247.007 110.994 246.196 110.228 246.196C109.462 246.196 108.841 247.007 108.841 248.008C108.841 249.008 109.462 249.819 110.228 249.819Z" fill="#3F3D56"/>
<path d="M110.228 247.603C110.994 247.603 111.615 246.792 111.615 245.792C111.615 244.791 110.994 243.98 110.228 243.98C109.462 243.98 108.841 244.791 108.841 245.792C108.841 246.792 109.462 247.603 110.228 247.603Z" fill="#3F3D56"/>
<path d="M110.228 245.391C110.994 245.391 111.615 244.58 111.615 243.58C111.615 242.579 110.994 241.768 110.228 241.768C109.462 241.768 108.841 242.579 108.841 243.58C108.841 244.58 109.462 245.391 110.228 245.391Z" fill="#3F3D56"/>
<path d="M110.228 243.175C110.994 243.175 111.615 242.364 111.615 241.364C111.615 240.363 110.994 239.552 110.228 239.552C109.462 239.552 108.841 240.363 108.841 241.364C108.841 242.364 109.462 243.175 110.228 243.175Z" fill="#3F3D56"/>
<path d="M110.228 240.959C110.994 240.959 111.615 240.148 111.615 239.148C111.615 238.147 110.994 237.336 110.228 237.336C109.462 237.336 108.841 238.147 108.841 239.148C108.841 240.148 109.462 240.959 110.228 240.959Z" fill="#3F3D56"/>
<path d="M110.228 238.747C110.994 238.747 111.615 237.936 111.615 236.935C111.615 235.935 110.994 235.124 110.228 235.124C109.462 235.124 108.841 235.935 108.841 236.935C108.841 237.936 109.462 238.747 110.228 238.747Z" fill="#3F3D56"/>
<path d="M115.417 221.78C115.605 221.538 115.776 221.284 115.931 221.02L112.294 220.422L116.23 220.454C116.609 219.633 116.815 218.743 116.837 217.839C116.859 216.936 116.695 216.037 116.357 215.199L111.076 217.935L115.945 214.376C115.487 213.592 114.872 212.91 114.139 212.373C113.406 211.836 112.571 211.455 111.685 211.253C110.798 211.052 109.88 211.035 108.987 211.203C108.094 211.371 107.245 211.721 106.492 212.23C105.74 212.739 105.1 213.398 104.613 214.164C104.126 214.931 103.801 215.789 103.66 216.686C103.518 217.583 103.563 218.5 103.79 219.379C104.018 220.258 104.424 221.081 104.983 221.797C104.689 222.173 104.435 222.578 104.226 223.007L108.954 225.469L103.913 223.781C103.558 224.825 103.469 225.94 103.653 227.027C103.838 228.114 104.29 229.138 104.969 230.006C104.2 230.985 103.721 232.159 103.588 233.396C103.455 234.633 103.673 235.882 104.218 237.001C104.762 238.12 105.61 239.064 106.665 239.724C107.721 240.384 108.941 240.734 110.186 240.734C111.431 240.734 112.651 240.384 113.706 239.724C114.762 239.064 115.61 238.12 116.154 237.001C116.698 235.882 116.916 234.633 116.784 233.396C116.651 232.159 116.172 230.985 115.403 230.006C116.322 228.837 116.821 227.394 116.821 225.907C116.821 224.42 116.322 222.977 115.403 221.808L115.417 221.78Z" fill="#23A19A"/>
<path opacity="0.1" d="M103.564 225.877C103.56 227.363 104.056 228.808 104.972 229.978C104.203 230.956 103.724 232.131 103.592 233.368C103.459 234.605 103.677 235.854 104.221 236.973C104.765 238.092 105.613 239.035 106.669 239.695C107.724 240.355 108.944 240.705 110.189 240.705C111.434 240.705 112.654 240.355 113.71 239.695C114.765 239.035 115.613 238.092 116.158 236.973C116.702 235.854 116.92 234.605 116.787 233.368C116.654 232.131 116.176 230.956 115.406 229.978C116.304 228.849 103.564 225.135 103.564 225.877Z" fill="black"/>
<path d="M173.074 150.513C172.177 145.821 171.174 141.119 171.008 136.346C170.91 133.532 171.107 130.669 170.744 127.862C170.565 126.484 170.251 125.129 169.941 123.775L168.695 118.355C168.837 117.316 168.796 116.261 168.576 115.235C168.451 114.695 168.285 114.164 168.079 113.649C169.243 112.013 170.201 110.242 170.934 108.373C171.265 107.529 171.55 106.632 171.42 105.739C171.167 104.026 169.505 102.897 167.96 102.053C167.023 101.543 166.038 101.05 164.967 100.969C164.219 100.939 163.474 101.082 162.79 101.387C162.106 101.692 161.502 102.151 161.025 102.728C160.765 101.341 160.852 99.9121 161.278 98.5672C160.359 98.1557 159.434 97.7688 158.501 97.3924C158.366 96.1769 158.319 94.9532 158.36 93.731C158.381 92.2643 158.406 90.7835 158.49 89.3133C160.994 88.4004 163.158 86.7442 164.692 84.567C166.226 82.3898 167.057 79.7957 167.072 77.1331C167.072 76.9819 167.072 76.8341 167.072 76.6864C167.755 75.461 168.186 74.1122 168.342 72.7186C168.498 71.325 168.375 69.9143 167.981 68.5686C166.949 65.0514 164.253 62.1532 161.004 60.3629C157.755 58.5726 153.988 57.8164 150.26 57.6828C149.009 57.6096 147.754 57.6887 146.522 57.9184C145.203 58.2426 143.925 58.7146 142.713 59.3253C140.851 60.1835 138.974 61.1226 137.58 62.6034C135.162 65.1815 134.62 68.9696 134.884 72.4517C135.236 77.0241 136.764 81.4488 138.531 85.7046C139.119 87.1115 139.745 88.5395 140.713 89.7389C141.463 90.6639 142.765 90.7202 143.8 90.073C143.718 91.1966 143.692 92.3235 143.723 93.4496C141.812 93.3828 139.949 93.6958 138.415 94.7721C137.71 95.275 137.042 96.0664 137.197 96.9176C137.667 96.9301 138.117 97.1081 138.469 97.4202C138.821 97.7323 139.051 98.1584 139.119 98.6234C139.196 99.3726 138.819 100.087 138.453 100.734C138.295 101.022 138.136 101.314 137.974 101.603C136.461 103.22 134.908 105.246 134.771 107.255C134.524 107.278 134.279 107.315 134.035 107.364C132.663 107.617 131.297 108.085 129.948 108.437L120.19 111.004L117.779 111.672L113.907 112.692C111.443 113.34 108.933 114.004 106.747 115.306C104.561 116.607 102.706 118.651 102.266 121.113C102.047 122.337 102.181 123.61 101.914 124.823C101.914 124.88 101.892 124.932 101.878 124.985C101.655 125.753 101.354 126.497 100.981 127.205C98.7946 131.809 97.2387 136.828 97.5309 141.896C97.7104 145.009 98.5869 148.044 99.4388 151.041C100.333 154.106 101.215 157.17 102.086 160.235C102.66 162.429 103.388 164.58 104.265 166.672C105.767 170.022 107.995 172.998 110.788 175.384C111.572 176.086 112.448 176.678 113.393 177.142C114.833 177.765 116.406 178.02 117.969 177.884C118.392 177.856 118.807 177.811 119.219 177.744C122.243 177.265 125.062 175.809 127.65 174.17C128.732 173.486 129.788 172.765 130.818 172.007C130.949 173.189 131.184 174.356 131.522 175.496C131.751 176.281 132.032 177.086 131.941 177.899C131.814 179.031 130.99 179.96 130.564 181.022C129.66 183.266 130.589 185.767 130.74 188.172C130.885 190.427 130.336 192.664 129.896 194.883C129.161 198.585 128.726 202.339 128.597 206.11C128.593 207.538 128.499 208.964 128.315 210.38C127.988 212.378 127.22 214.305 127.087 216.324C126.882 219.469 128.241 222.546 128.118 225.694C127.974 229.391 125.802 232.982 126.558 236.598C126.654 237.051 126.911 237.576 127.326 237.692L127.122 237.878C126.499 238.455 125.893 239.521 126.601 239.988C126.764 240.085 126.944 240.147 127.132 240.171C128.227 240.4 129.329 240.607 130.431 240.801C130.406 241.818 130.535 242.833 130.811 243.812C131.012 243.956 131.216 244.086 131.42 244.209C131.265 244.624 131.276 245.025 131.642 245.264C131.804 245.361 131.985 245.423 132.173 245.447C141.241 247.317 150.502 248.084 159.754 247.733C161.408 247.67 163.137 247.55 164.549 246.706C165.96 245.862 166.914 244.065 166.242 242.584C165.647 241.276 164.091 240.709 162.693 240.273L161.053 239.767C161.263 239.395 161.386 238.979 161.411 238.553C161.437 238.126 161.365 237.699 161.201 237.305C160.606 235.996 159.05 235.43 157.652 234.994L153.875 233.823C153.378 233.705 152.911 233.486 152.502 233.179C152.232 232.91 151.982 232.621 151.756 232.314C151.211 231.691 150.495 231.242 149.697 231.023C149.654 230.223 149.672 229.421 149.75 228.624L150.806 215.888C151.041 213.004 151.274 210.064 150.601 207.246C150.33 206.103 149.897 204.932 150.161 203.785C150.573 201.914 152.545 200.873 153.889 199.484C155.917 197.373 156.547 194.373 157.012 191.517C158.936 179.732 159.54 167.768 158.814 155.849C163.04 154.659 167.389 153.96 171.775 153.767C172.522 153.735 172.888 153.383 173.12 152.687C173.353 151.991 173.212 151.234 173.074 150.513ZM152.006 151.136C152.031 151.013 152.059 150.89 152.08 150.767L152.372 151.139L152.006 151.136Z" fill="url(#paint0_linear)"/>
<path d="M145.142 86.5769C145.05 87.8009 144.617 88.9756 144.459 90.1961C144.279 91.5397 144.438 92.9079 144.35 94.2621C144.262 95.6162 143.871 97.0407 142.839 97.9235C148.834 98.4422 154.739 99.7186 160.412 101.722C158.698 99.6118 158.652 96.6643 158.694 93.9561C158.751 89.9499 158.821 85.8664 160.131 82.0854C156.225 81.2131 152.181 81.1604 148.253 81.9306C147.402 82.0994 144.821 81.9939 144.438 82.7888C144.159 83.3727 145.205 85.6905 145.142 86.5769Z" fill="#A1616A"/>
<path opacity="0.1" d="M145.142 86.5769C145.05 87.8009 144.617 88.9756 144.459 90.1961C144.279 91.5397 144.438 92.9079 144.35 94.2621C144.262 95.6162 143.871 97.0407 142.839 97.9235C148.834 98.4422 154.739 99.7186 160.412 101.722C158.698 99.6118 158.652 96.6643 158.694 93.9561C158.751 89.9499 158.821 85.8664 160.131 82.0854C156.225 81.2131 152.181 81.1604 148.253 81.9306C147.402 82.0994 144.821 81.9939 144.438 82.7888C144.159 83.3727 145.205 85.6905 145.142 86.5769Z" fill="black"/>
<path d="M152.238 232.331C152.45 232.643 152.685 232.939 152.942 233.214C153.339 233.521 153.796 233.741 154.283 233.858L157.973 235.029C159.342 235.465 160.863 236.028 161.444 237.336C162.098 238.814 161.165 240.611 159.786 241.452C158.406 242.292 156.716 242.415 155.1 242.479C146.053 242.827 136.998 242.06 128.139 240.196C127.956 240.169 127.78 240.107 127.621 240.013C126.917 239.538 127.519 238.476 128.128 237.903C130.504 235.652 133.088 233.292 136.323 232.771C138.024 232.493 139.731 232.606 141.421 232.201C142.635 231.909 143.783 231.406 144.994 231.107C147.25 230.555 150.626 230.358 152.238 232.331Z" fill="#46455B"/>
<path opacity="0.1" d="M152.238 232.331C152.45 232.643 152.685 232.939 152.942 233.214C153.339 233.521 153.796 233.741 154.283 233.858L157.973 235.029C159.342 235.465 160.863 236.028 161.444 237.336C162.098 238.814 161.165 240.611 159.786 241.452C158.406 242.292 156.716 242.415 155.1 242.479C146.053 242.827 136.998 242.06 128.139 240.196C127.956 240.169 127.78 240.107 127.621 240.013C126.917 239.538 127.519 238.476 128.128 237.903C130.504 235.652 133.088 233.292 136.323 232.771C138.024 232.493 139.731 232.606 141.421 232.201C142.635 231.909 143.783 231.406 144.994 231.107C147.25 230.555 150.626 230.358 152.238 232.331Z" fill="black"/>
<path d="M133.715 152.778C131.895 157.578 131.783 162.858 133.398 167.73C132.17 167.597 131.638 169.257 131.67 170.495C131.714 172.218 131.975 173.93 132.448 175.588C132.673 176.376 132.948 177.178 132.86 177.986C132.733 179.119 131.93 180.048 131.511 181.106C130.631 183.347 131.536 185.844 131.687 188.246C131.828 190.501 131.29 192.734 130.857 194.95C130.139 198.647 129.716 202.396 129.589 206.16C129.587 207.586 129.494 209.011 129.311 210.426C128.994 212.424 128.255 214.348 128.114 216.363C127.914 219.501 129.241 222.578 129.121 225.723C128.98 229.412 126.854 233 127.597 236.626C127.703 237.136 127.988 237.737 128.512 237.744C133.821 237.811 138.781 236.338 144.033 237.108C144.568 224.966 145.089 212.769 147.483 200.849C149.595 190.237 153.175 179.745 152.84 168.926C152.647 162.739 151.175 156.672 150.281 150.545C144.669 149.3 138.796 150.092 133.715 152.778Z" fill="#BBBDC8"/>
<path opacity="0.1" d="M133.715 152.778C131.895 157.578 131.783 162.858 133.398 167.73C132.17 167.597 131.638 169.257 131.67 170.495C131.714 172.218 131.975 173.93 132.448 175.588C132.673 176.376 132.948 177.178 132.86 177.986C132.733 179.119 131.93 180.048 131.511 181.106C130.631 183.347 131.536 185.844 131.687 188.246C131.828 190.501 131.29 192.734 130.857 194.95C130.139 198.647 129.716 202.396 129.589 206.16C129.587 207.586 129.494 209.011 129.311 210.426C128.994 212.424 128.255 214.348 128.114 216.363C127.914 219.501 129.241 222.578 129.121 225.723C128.98 229.412 126.854 233 127.597 236.626C127.703 237.136 127.988 237.737 128.512 237.744C133.821 237.811 138.781 236.338 144.033 237.108C144.568 224.966 145.089 212.769 147.483 200.849C149.595 190.237 153.175 179.745 152.84 168.926C152.647 162.739 151.175 156.672 150.281 150.545C144.669 149.3 138.796 150.092 133.715 152.778Z" fill="black"/>
<path d="M157.166 237.607C157.378 237.919 157.613 238.214 157.87 238.49C158.267 238.797 158.724 239.016 159.212 239.134L162.901 240.305C164.27 240.741 165.791 241.304 166.372 242.612C167.027 244.09 166.094 245.887 164.714 246.727C163.334 247.568 161.644 247.691 160.028 247.754C150.982 248.103 141.926 247.336 133.067 245.472C132.884 245.445 132.708 245.383 132.55 245.289C131.846 244.814 132.448 243.752 133.057 243.179C135.433 240.928 138.017 238.567 141.252 238.047C142.952 237.769 144.659 237.882 146.349 237.477C147.563 237.185 148.711 236.682 149.922 236.383C152.178 235.831 155.554 235.634 157.166 237.607Z" fill="#46455B"/>
<path d="M135.545 153.127C134.187 154.885 133.785 157.207 133.968 159.408C134.151 161.61 134.894 163.724 135.623 165.81C134.655 166.7 134.855 168.233 134.982 169.542C135.443 174.402 133.754 179.253 134 184.128C134.102 186.178 134.549 188.201 134.655 190.251C134.771 192.492 134.486 194.732 134.218 196.958C132.509 211.212 131.569 225.546 131.402 239.9C131.402 241.223 131.381 242.567 131.754 243.833C134.313 245.714 137.527 245.968 140.625 245.264C143.723 244.561 146.55 242.992 149.327 241.445C150.849 240.658 152.291 239.727 153.636 238.666C154.047 238.375 154.351 237.957 154.502 237.477C154.797 236.07 152.84 235.434 151.717 234.523C150.084 233.197 150.108 230.742 150.277 228.645L151.298 215.927C151.531 213.046 151.756 210.109 151.101 207.296C150.834 206.156 150.422 204.985 150.668 203.838C151.069 201.974 152.999 200.933 154.312 199.544C156.297 197.433 156.909 194.44 157.367 191.591C159.524 178.075 159.983 164.343 158.733 150.714C156.146 151.611 153.079 151.122 150.351 151.333C147.623 151.544 144.913 152.455 142.149 152.529C139.847 152.581 136.96 151.312 135.545 153.127Z" fill="#BBBDC8"/>
<path d="M154.185 90.3931C161.378 90.3931 167.21 84.5666 167.21 77.3793C167.21 70.192 161.378 64.3655 154.185 64.3655C146.992 64.3655 141.16 70.192 141.16 77.3793C141.16 84.5666 146.992 90.3931 154.185 90.3931Z" fill="#A1616A"/>
<path d="M161.546 98.7852C157.372 96.8699 153.02 95.369 148.553 94.3043C145.406 93.5551 141.811 93.1049 139.182 94.9866C138.478 95.4896 137.841 96.281 137.992 97.1321C138.456 97.1475 138.899 97.3271 139.243 97.6389C139.587 97.9507 139.808 98.3745 139.868 98.8345C139.946 99.5801 139.58 100.294 139.221 100.945L136.183 106.572C135.6 107.586 135.1 108.645 134.686 109.738C134.074 111.525 133.94 113.438 133.81 115.323L133.458 120.43C133.24 123.649 133.018 126.881 133.31 130.092C133.528 132.516 134.035 134.95 133.69 137.359C133.412 139.297 132.592 141.115 132.131 143.022C131.265 146.609 131.659 150.541 129.98 153.834C130.662 153.519 131.432 153.449 132.159 153.637C137.256 154.576 141.266 158.596 146.215 160.133C147.465 158.311 149.158 156.967 150.556 155.272C151.595 154.001 152.283 152.481 152.552 150.861C153.608 152.268 154.505 153.366 155.135 154.998C155.247 155.377 155.44 155.729 155.699 156.028C156.364 156.675 157.459 156.426 158.349 156.155C162.716 154.839 167.23 154.075 171.786 153.879C172.518 153.848 172.874 153.496 173.102 152.799C173.331 152.103 173.205 151.35 173.067 150.633C172.191 145.944 171.212 141.249 171.05 136.483C170.952 133.669 171.145 130.817 170.79 128.01C170.614 126.635 170.307 125.281 170.005 123.93L167.491 112.77C167.35 112.147 166.682 111.739 166.396 111.166C165.242 108.83 163.035 107.142 161.894 104.8C161.033 102.908 160.908 100.763 161.546 98.7852Z" fill="#46455B"/>
<path d="M143.272 82.5884C143.257 82.4062 143.3 82.2239 143.396 82.0678C143.535 81.9217 143.709 81.8139 143.903 81.7548C144.427 81.5058 144.857 81.0926 145.125 80.5778C145.394 80.0631 145.488 79.4749 145.392 78.9023L146.624 78.6455L146.662 74.358C148.493 73.3451 150.989 74.1118 152.71 72.9195C153.678 72.2442 154.174 71.0975 154.766 70.0775C155.357 69.0575 156.237 68.0305 157.413 67.9461C157.009 68.9737 156.835 70.0775 156.905 71.1795C156.975 72.2814 157.287 73.3545 157.818 74.3228C159.051 73.6995 160.08 72.7381 160.785 71.5513L161.398 75.0685C161.41 75.2853 161.503 75.4898 161.658 75.6418C161.979 75.8775 162.412 75.582 162.693 75.2901L164.288 73.7249C164.959 75.4074 165.419 77.1666 165.657 78.9621C168.276 76.4226 169.09 72.3426 168.083 68.8395C167.076 65.3363 164.439 62.4346 161.264 60.6443C158.089 58.854 154.407 58.1013 150.763 57.9677C149.54 57.8962 148.313 57.9753 147.109 58.2033C145.818 58.5279 144.568 59 143.385 59.6102C141.565 60.4649 139.728 61.404 138.369 62.8813C136.003 65.4559 135.472 69.2404 135.732 72.7295C136.084 77.302 137.57 81.7161 139.298 85.9649C139.872 87.3718 140.484 88.7963 141.431 89.9957C142.857 91.8 146.36 90.3017 145.913 86.7352C145.603 84.1887 143.272 85.17 143.272 82.5884Z" fill="#3F3D56"/>
<path d="M148.2 152.261C143.807 161.23 137.061 168.84 128.681 174.279C126.15 175.915 123.401 177.371 120.44 177.849C120.035 177.916 119.631 177.962 119.219 177.99C117.692 178.116 116.158 177.856 114.759 177.234C113.832 176.768 112.974 176.176 112.21 175.475C109.471 173.08 107.294 170.11 105.835 166.777C104.977 164.686 104.266 162.537 103.705 160.348C102.841 157.285 101.98 154.222 101.121 151.157C100.28 148.16 99.4316 145.128 99.2556 142.012C98.9704 136.951 100.491 131.939 102.628 127.342C102.992 126.634 103.286 125.891 103.504 125.126C103.504 125.073 103.529 125.02 103.54 124.964C103.793 123.751 103.663 122.481 103.892 121.257C104.321 118.795 106.138 116.755 108.271 115.457C110.404 114.159 112.847 113.494 115.272 112.847L119.05 111.831L121.394 111.201L130.93 108.637C132.25 108.285 133.585 107.817 134.926 107.582C136.422 107.3 136.411 107.448 136.527 108.911C136.742 111.563 136.672 114.17 137.232 116.797C137.763 119.305 138.699 121.721 139.403 124.183C141.181 130.398 141.477 136.94 142.878 143.254C143.198 144.692 143.642 146.226 144.8 147.123C146.127 148.178 148.362 148.438 148.714 150.091C148.845 150.826 148.517 151.579 148.2 152.261Z" fill="#23A19A"/>
<path opacity="0.1" d="M120.44 177.835C120.035 177.902 119.631 177.948 119.219 177.976C117.693 178.107 116.159 177.851 114.759 177.234C113.832 176.768 112.974 176.176 112.21 175.475C109.471 173.08 107.294 170.11 105.835 166.777C104.977 164.686 104.266 162.537 103.705 160.347C102.841 157.285 101.98 154.222 101.121 151.157C100.28 148.16 99.4316 145.128 99.2556 142.012C98.9704 136.951 100.491 131.939 102.628 127.342C102.992 126.634 103.286 125.891 103.504 125.126C103.504 125.073 103.529 125.02 103.54 124.964C109.285 125.973 116.177 136.954 119.733 151.343C122.352 162.103 122.464 172.011 120.44 177.835Z" fill="black"/>
<path opacity="0.1" d="M130.825 139.976L129.864 140.141C128.875 137.545 127.889 134.946 126.731 132.421C126.129 131.102 125.478 129.8 124.971 128.439C123.07 123.212 123.394 117.012 119.87 112.706C119.619 112.387 119.332 112.096 119.015 111.841L121.359 111.212C123.412 114.455 124.86 118.043 125.633 121.802C126.013 123.638 126.228 125.516 126.847 127.282C127.374 128.621 127.977 129.929 128.653 131.2C129.991 133.94 130.997 136.933 130.825 139.976Z" fill="black"/>
<path d="M140.182 100.347C142.713 98.1803 146.166 96.9914 149.443 97.5331C151.372 97.8461 153.164 98.7149 154.893 99.6434C158.261 101.43 161.581 103.488 164.01 106.425C165.466 108.277 166.676 110.311 167.608 112.474C168.065 113.42 168.419 114.411 168.664 115.432C169.523 119.407 167.414 123.357 165.383 126.881L161.475 133.655C159.68 136.768 157.871 139.902 155.533 142.635C154.456 143.894 153.273 145.058 152.094 146.222L146.916 151.329C146.823 151.439 146.701 151.521 146.564 151.565C146.451 151.571 146.338 151.552 146.233 151.511C146.127 151.469 146.033 151.404 145.955 151.322L144.244 149.961C145.82 148.873 147.284 147.633 148.616 146.257C150.855 143.943 152.696 141.281 154.526 138.629L160.222 130.377C161.887 127.961 163.626 125.302 163.44 122.375C163.352 120.968 162.824 119.646 162.271 118.355C161.292 116.06 160.229 113.8 159.082 111.577C157.793 109.084 156.385 106.622 154.53 104.515C152.675 102.408 150.33 100.646 147.63 99.8826C146.825 99.6197 145.972 99.5381 145.131 99.6434C143.279 99.9494 141.963 101.539 140.791 103.016L137.221 107.589C136.408 108.626 135.662 109.829 135.612 107.86C135.528 105.049 138.372 102.155 140.182 100.347Z" fill="#23A19A"/>
<path d="M141.287 131.193C141.991 133.901 143.029 136.975 145.638 138.002C147.486 138.731 149.651 138.14 151.249 136.947C152.847 135.755 153.981 134.074 155.023 132.375C155.905 130.848 156.877 129.375 157.934 127.964C160.021 125.347 162.862 123.272 164.27 120.226C164.686 119.319 164.974 118.348 165.446 117.476C165.95 116.672 166.52 115.91 167.15 115.2C168.771 113.194 170.067 110.946 170.99 108.539C171.314 107.698 171.592 106.798 171.466 105.908C171.216 104.195 169.593 103.069 168.083 102.229C167.164 101.719 166.203 101.223 165.157 101.145C163.63 101.026 162.127 101.849 161.187 103.055C160.282 104.303 159.776 105.795 159.736 107.336C159.631 109.21 159.997 111.159 159.384 112.932C159.06 113.759 158.613 114.532 158.057 115.225C156.08 117.868 153.632 120.125 150.837 121.883C150.761 120.553 150.472 119.243 149.982 118.003C149.714 117.321 144.469 118.003 143.786 118.116C142.434 118.313 139.815 118.468 138.964 119.755C138.112 121.042 139.168 123.205 139.513 124.503L141.287 131.193Z" fill="#A1616A"/>
<path d="M141.16 101.638C140.381 102.281 139.656 102.987 138.992 103.748C137.429 105.63 136.665 108.078 136.468 110.515C136.271 112.953 136.605 115.401 137.024 117.81C137.404 119.972 137.854 122.119 138.372 124.25C138.516 122.643 139.819 121.313 141.329 120.733C142.839 120.152 144.497 120.216 146.106 120.451C148.177 120.758 150.197 121.341 152.112 122.185L152.854 111.785C153.011 110.382 153.002 108.965 152.83 107.564C152.596 106.264 152.087 105.029 151.338 103.94C150.589 102.851 149.617 101.935 148.486 101.251C145.663 99.5344 143.695 99.4254 141.16 101.638Z" fill="#46455B"/>
<path d="M274.146 152.247C273.812 149.425 272.99 146.682 271.717 144.14C270.939 142.592 269.992 141.112 269.503 139.455C269.105 138.108 269.028 136.691 268.711 135.322C268.394 133.954 267.835 132.646 267.384 131.309C264.198 121.813 266.592 111.423 265.564 101.469C265.18 97.7969 264.054 93.7696 260.868 91.8563C258.974 90.7202 256.7 90.5443 254.472 90.4494L253.455 90.4036L251.821 90.3227C249.456 90.2067 247.083 90.1187 244.781 90.6147C241.965 91.2302 238.627 93.2104 237.74 96.084C237.255 95.8343 236.765 95.6127 236.315 95.4052C234.501 94.6014 232.601 94.0112 230.651 93.6465C232.323 93.2256 233.938 92.6019 235.459 91.7894C238.979 89.7424 239.796 83.7631 240.514 79.764C241.232 75.7649 240.578 71.6321 239.384 67.7456C238.99 66.3665 238.453 65.0321 237.783 63.7641C236.856 62.0938 235.595 60.6325 234.077 59.4713C232.56 58.31 230.819 57.4739 228.964 57.0151C227.109 56.5563 225.179 56.4847 223.295 56.8047C221.41 57.1247 219.612 57.8295 218.013 58.8751C214.729 61.0241 211.677 64.151 209.17 67.1723C208.818 67.5873 207.347 69.0575 207.836 69.6765C208.111 70.0283 209.016 69.7469 209.966 69.3248C209.235 70.9753 208.858 72.7606 208.861 74.5655C208.863 76.8325 209.456 79.0599 210.581 81.0284C211.706 82.997 213.325 84.6389 215.278 85.7925L215.63 89.0284V89.053C215.669 90.1328 215.686 91.2126 215.7 92.2889C215.7 93.0451 215.7 93.8189 215.679 94.5927C214.219 96.244 212.43 97.5736 210.427 98.4968C212.082 98.7712 213.659 98.3843 215.193 97.723C214.944 98.587 214.525 99.3928 213.961 100.094C214.384 99.9459 214.806 99.8123 215.229 99.6716C215.008 100.026 214.811 100.395 214.641 100.776C214.38 101.378 214.19 102.008 214.074 102.654C213.178 103.963 212.401 105.35 211.754 106.798C211.459 107.455 211.195 108.124 210.955 108.802V108.848C210.72 109.523 210.513 110.208 210.332 110.902C210.248 111.235 210.17 111.569 210.1 111.905C210.1 111.929 210.1 111.954 210.1 111.978C209.959 112.657 209.843 113.34 209.748 114.029C209.748 114.075 209.748 114.12 209.748 114.17C209.709 114.49 209.674 114.813 209.649 115.137C209.649 115.137 209.649 115.169 209.649 115.186C209.621 115.538 209.6 115.872 209.589 116.217C209.589 116.262 209.589 116.305 209.589 116.35C209.589 116.642 209.589 116.938 209.589 117.23V117.43C209.589 118.091 209.632 118.756 209.695 119.421C209.695 119.502 209.695 119.586 209.72 119.667C209.748 119.938 209.779 120.209 209.818 120.483C209.818 120.546 209.818 120.61 209.843 120.67C209.889 120.997 209.941 121.32 210.001 121.644C210.001 121.714 210.033 121.788 210.047 121.858C210.096 122.119 210.149 122.375 210.209 122.636L210.272 122.903C210.35 123.227 210.431 123.547 210.522 123.87C210.575 124.053 210.628 124.222 210.684 124.415C210.852 125.082 210.97 125.76 211.036 126.445L209.111 126.508C204.99 126.625 200.872 126.812 196.758 127.067C196.244 125.087 194.491 123.944 192.284 123.673C191.934 123.631 191.581 123.61 191.228 123.61C191.609 123.289 191.947 122.922 192.235 122.516C192.618 121.99 192.891 121.392 193.037 120.757C192.47 121.08 191.974 121.514 191.58 122.034C191.45 122.21 191.334 122.386 191.228 122.548V121.493C191.228 121.47 191.224 121.448 191.216 121.427C191.208 121.407 191.195 121.388 191.18 121.372C191.164 121.356 191.145 121.344 191.124 121.336C191.103 121.327 191.081 121.323 191.059 121.324H190.707C190.685 121.323 190.662 121.327 190.642 121.336C190.621 121.344 190.602 121.356 190.586 121.372C190.571 121.388 190.558 121.407 190.55 121.427C190.542 121.448 190.538 121.47 190.538 121.493V123.642H190.468H190.348C190.116 123.663 189.89 123.691 189.668 123.733C187.271 124.18 185.515 125.717 185.515 128.305C185.515 129.121 185.693 129.926 186.036 130.666C186.379 131.405 186.878 132.062 187.5 132.589C187.603 133.396 187.786 134.19 188.046 134.96C188.289 135.723 188.605 136.553 189.316 136.933C189.751 137.13 190.227 137.217 190.703 137.186C194.618 137.186 198.321 135.382 202.218 135.076C204.626 134.883 207.044 135.256 209.459 135.182C209.811 135.182 210.163 135.146 210.515 135.118C207.213 151.456 203.218 168.001 205.305 184.504C205.443 185.601 205.657 186.79 206.477 187.536C207.565 188.528 209.241 188.366 210.702 188.239C214.711 187.874 218.753 188.196 222.653 189.192C223.201 189.344 223.778 189.364 224.335 189.252C224.455 189.225 224.572 189.191 224.687 189.15L224.786 189.112C224.86 189.083 224.93 189.055 224.997 189.024L225.099 188.971L225.272 188.865C225.3 188.844 225.332 188.827 225.356 188.806C225.418 188.763 225.475 188.716 225.529 188.665L225.578 188.623C225.644 188.558 225.706 188.49 225.765 188.419L225.807 188.355C225.848 188.302 225.885 188.247 225.92 188.19C225.937 188.162 225.955 188.134 225.969 188.106C225.983 188.077 226.025 188 226.05 187.947C226.074 187.895 226.078 187.884 226.089 187.852C226.099 187.821 226.134 187.736 226.155 187.676C226.177 187.617 226.155 187.62 226.184 187.589C226.212 187.557 226.233 187.413 226.25 187.325V187.268C226.25 187.195 226.279 187.117 226.289 187.043C226.3 186.969 226.289 186.966 226.289 186.927C226.289 186.889 226.289 186.811 226.289 186.755V186.628C226.289 186.572 226.289 186.516 226.289 186.46V186.146C226.289 186.111 226.289 186.073 226.289 186.034C226.289 185.721 226.254 185.404 226.222 185.102C226.474 185.175 226.73 185.23 226.99 185.267C227.232 185.306 227.477 185.323 227.722 185.32H227.757C227.873 185.32 227.989 185.32 228.109 185.292C228.211 185.276 228.312 185.255 228.412 185.228H228.458C228.55 185.201 228.639 185.166 228.725 185.123L228.767 185.098C228.841 185.058 228.91 185.011 228.975 184.958L229.007 184.933C229.073 184.872 229.132 184.803 229.183 184.729L229.214 184.676C229.267 184.591 229.308 184.5 229.338 184.405C229.538 183.727 229.081 182.96 229.813 182.337C230.517 184.592 231.221 186.85 231.337 189.182C231.376 190.033 231.337 190.94 231.837 191.644C232.162 192.028 232.515 192.388 232.893 192.72C233.97 193.884 233.995 195.64 233.921 197.215C233.889 197.852 233.854 198.488 233.808 199.125C233.227 207.62 231.498 215.998 228.669 224.031C228.393 224.885 228.032 225.71 227.592 226.493C226.877 227.601 225.984 228.582 224.948 229.398C223.48 230.643 221.908 231.76 220.248 232.736C219.401 233.184 218.6 233.715 217.858 234.322C217.83 234.241 217.798 234.164 217.777 234.079C217.739 233.918 217.686 233.728 217.527 233.668C217.407 233.641 217.281 233.661 217.175 233.724C215.524 234.449 213.873 235.173 212.286 236.021C211.484 236.386 210.778 236.931 210.223 237.614C209.716 238.318 209.565 239.373 210.089 240.076C210.55 240.692 211.378 240.896 212.141 241.033C213.12 241.205 214.102 241.328 215.084 241.42C214.58 241.715 214.138 242.107 213.785 242.574C213.278 243.277 213.127 244.332 213.652 245.036C214.113 245.651 214.94 245.855 215.704 245.992C221.945 247.093 228.345 246.344 234.681 246.158C236.741 246.091 238.846 246.077 240.796 245.408C241.181 245.295 241.539 245.107 241.852 244.856C242.739 244.075 242.651 242.704 242.496 241.54L241.852 236.784C241.757 236.784 241.665 236.816 241.574 236.837C242.114 232.37 243.081 227.965 244.464 223.682C246.611 217.017 249.808 210.451 249.765 203.476C249.765 203.307 249.765 203.124 249.765 202.969C249.706 200.785 249.315 198.626 249.061 196.452C248.664 192.815 248.709 189.147 248.734 185.492C248.703 184.059 248.803 182.627 249.033 181.212C249.033 181.163 249.054 181.117 249.065 181.068L254.912 180.913C255.56 180.946 256.206 180.825 256.799 180.561C257.079 180.438 257.304 180.216 257.43 179.938C257.556 179.659 257.574 179.344 257.482 179.052C259.974 180.181 263.308 178.644 264.043 176.027C264.094 175.843 264.136 175.657 264.167 175.468C264.165 175.454 264.165 175.44 264.167 175.426C264.191 175.25 264.209 175.074 264.216 174.902C264.216 174.874 264.216 174.842 264.216 174.814C264.252 173.606 264.065 172.401 263.663 171.262C262.466 167.874 260.565 164.79 258.777 161.67C257.855 160.056 256.961 158.42 256.091 156.778L256.855 157.759C257.123 158.159 257.475 158.496 257.887 158.747C259.312 159.482 260.805 158.002 262.255 157.319C264.181 156.412 266.434 156.946 268.56 157.098C270.686 157.249 273.249 156.7 274.009 154.73C274.255 153.926 274.303 153.074 274.146 152.247ZM237.49 99.3867C237.49 100.139 237.54 100.903 237.6 101.669C236.885 100.503 236.06 99.4072 235.135 98.3983L237.49 99.3867Z" fill="url(#paint1_linear)"/>
<path d="M191.499 122.667C191.889 122.152 192.379 121.72 192.939 121.398C192.796 122.031 192.527 122.629 192.147 123.156C191.534 123.99 190.89 124.563 190.711 124.426C190.531 124.289 190.88 123.501 191.499 122.667Z" fill="#99D55C"/>
<path opacity="0.1" d="M191.577 122.731C191.861 122.348 192.221 122.026 192.633 121.784C192.526 122.253 192.326 122.696 192.045 123.086C191.587 123.705 191.108 124.141 190.989 124.032C190.869 123.923 191.119 123.35 191.577 122.731Z" fill="black"/>
<path d="M190.644 121.967H190.996C191.018 121.967 191.04 121.972 191.06 121.98C191.081 121.989 191.1 122.001 191.115 122.017C191.131 122.033 191.143 122.051 191.152 122.072C191.16 122.092 191.165 122.114 191.165 122.136V126.121H190.496V122.136C190.496 122.095 190.51 122.055 190.538 122.024C190.565 121.993 190.603 121.973 190.644 121.967Z" fill="#F6987E"/>
<path d="M196.779 128.935C196.779 130.428 196.186 131.859 195.13 132.914C194.073 133.97 192.641 134.563 191.147 134.563C189.653 134.563 188.221 133.97 187.164 132.914C186.108 131.859 185.515 130.428 185.515 128.935C185.515 126.357 187.25 124.83 189.619 124.384C190.123 124.291 190.635 124.245 191.147 124.247C191.5 124.246 191.853 124.267 192.203 124.31C194.808 124.633 196.779 126.188 196.779 128.935Z" fill="#FC4A4A"/>
<path opacity="0.1" d="M192.203 124.31C192.101 124.503 191.548 124.662 190.88 124.662C190.443 124.693 190.006 124.602 189.619 124.398C190.123 124.305 190.635 124.259 191.147 124.261C191.5 124.255 191.853 124.272 192.203 124.31Z" fill="black"/>
<path opacity="0.1" d="M192.087 134.429C190.593 134.429 189.16 133.836 188.104 132.781C187.048 131.725 186.455 130.294 186.455 128.801C186.455 126.269 188.127 124.753 190.429 124.278C190.157 124.299 189.887 124.334 189.619 124.384C187.25 124.83 185.515 126.357 185.515 128.935C185.515 130.428 186.108 131.859 187.164 132.914C188.221 133.97 189.653 134.563 191.147 134.563C191.572 134.563 191.996 134.515 192.411 134.418C192.302 134.425 192.203 134.429 192.087 134.429Z" fill="black"/>
<path d="M216.915 238.592C217.693 239.296 218.883 239.278 219.939 239.201L224.751 238.849C228.574 238.567 232.527 238.251 235.899 236.433C236.256 236.269 236.572 236.029 236.825 235.729C237.093 235.269 237.233 234.746 237.23 234.213C237.685 229.004 238.722 223.861 240.321 218.881C242.433 212.251 245.601 205.716 245.559 198.777C245.559 198.608 245.559 198.425 245.559 198.274C245.499 196.1 245.115 193.951 244.879 191.788C244.489 188.169 244.527 184.522 244.555 180.885C244.525 179.459 244.624 178.033 244.851 176.625C245.073 175.482 245.907 174.336 245.397 173.33C244.408 171.378 240.821 170.66 238.891 170.59C236.294 170.498 233.738 171.177 231.228 171.852C230.464 172.06 229.665 172.282 229.088 172.82C228.313 173.544 228.091 174.68 228.063 175.739C227.93 180.434 230.637 184.803 230.851 189.491C230.89 190.336 230.851 191.25 231.344 191.953C231.669 192.337 232.022 192.695 232.4 193.026C233.456 194.183 233.488 195.928 233.414 197.497C233.382 198.13 233.347 198.763 233.305 199.396C232.73 207.846 231.021 216.18 228.225 224.175C227.956 225.029 227.602 225.853 227.169 226.637C226.463 227.737 225.58 228.714 224.557 229.528C223.107 230.765 221.554 231.876 219.914 232.848C218.819 233.496 217.651 234.115 216.901 235.142C216.151 236.169 215.986 237.727 216.915 238.592Z" fill="#FDA8A8"/>
<path opacity="0.1" d="M216.915 238.592C217.693 239.296 218.883 239.278 219.939 239.201L224.751 238.849C228.574 238.567 232.527 238.251 235.899 236.433C236.256 236.269 236.572 236.029 236.825 235.729C237.093 235.269 237.233 234.746 237.23 234.213C237.685 229.004 238.722 223.861 240.321 218.881C242.433 212.251 245.601 205.716 245.559 198.777C245.559 198.608 245.559 198.425 245.559 198.274C245.499 196.1 245.115 193.951 244.879 191.788C244.489 188.169 244.527 184.522 244.555 180.885C244.525 179.459 244.624 178.033 244.851 176.625C245.073 175.482 245.907 174.336 245.397 173.33C244.408 171.378 240.821 170.66 238.891 170.59C236.294 170.498 233.738 171.177 231.228 171.852C230.464 172.06 229.665 172.282 229.088 172.82C228.313 173.544 228.091 174.68 228.063 175.739C227.93 180.434 230.637 184.803 230.851 189.491C230.89 190.336 230.851 191.25 231.344 191.953C231.669 192.337 232.022 192.695 232.4 193.026C233.456 194.183 233.488 195.928 233.414 197.497C233.382 198.13 233.347 198.763 233.305 199.396C232.73 207.846 231.021 216.18 228.225 224.175C227.956 225.029 227.602 225.853 227.169 226.637C226.463 227.737 225.58 228.714 224.557 229.528C223.107 230.765 221.554 231.876 219.914 232.848C218.819 233.496 217.651 234.115 216.901 235.142C216.151 236.169 215.986 237.727 216.915 238.592Z" fill="black"/>
<path d="M216.915 238.592C217.693 239.296 218.883 239.278 219.939 239.201L224.751 238.849C228.574 238.567 232.527 238.251 235.899 236.433C236.256 236.269 236.572 236.029 236.825 235.729C237.093 235.269 237.233 234.746 237.23 234.213C237.685 229.004 238.722 223.861 240.321 218.881C242.433 212.251 245.601 205.716 245.559 198.777C241.49 199.226 237.398 199.428 233.305 199.382C232.73 207.832 231.021 216.166 228.225 224.161C227.956 225.014 227.602 225.839 227.169 226.623C226.463 227.723 225.58 228.7 224.557 229.514C223.107 230.751 221.554 231.862 219.914 232.834C218.819 233.482 217.651 234.101 216.901 235.128C216.151 236.155 215.986 237.727 216.915 238.592Z" fill="#EEEFF3"/>
<path opacity="0.1" d="M216.915 238.592C217.693 239.296 218.883 239.278 219.939 239.201L224.751 238.849C228.574 238.567 232.527 238.251 235.899 236.433C236.256 236.269 236.572 236.029 236.825 235.729C237.093 235.269 237.233 234.746 237.23 234.213C237.685 229.004 238.722 223.861 240.321 218.881C242.433 212.251 245.601 205.716 245.559 198.777C241.49 199.226 237.398 199.428 233.305 199.382C232.73 207.832 231.021 216.166 228.225 224.161C227.956 225.014 227.602 225.839 227.169 226.623C226.463 227.723 225.58 228.7 224.557 229.514C223.107 230.751 221.554 231.862 219.914 232.834C218.819 233.482 217.651 234.101 216.901 235.128C216.151 236.155 215.986 237.727 216.915 238.592Z" fill="black"/>
<path d="M227.546 237.108C228.702 236.694 229.813 236.164 230.862 235.525L236.167 232.535C236.646 232.225 237.18 232.009 237.74 231.899L238.374 236.629C238.533 237.79 238.617 239.155 237.74 239.932C237.427 240.182 237.069 240.368 236.684 240.481C234.759 241.146 232.682 241.16 230.644 241.223C224.385 241.423 218.063 242.155 211.895 241.058C211.142 240.924 210.325 240.706 209.871 240.108C209.354 239.405 209.501 238.385 210.001 237.671C210.549 236.992 211.247 236.449 212.039 236.084C213.609 235.24 215.239 234.523 216.869 233.802C216.97 233.742 217.089 233.722 217.204 233.745C217.362 233.798 217.411 233.992 217.454 234.153C217.739 235.307 218.668 236.218 219.728 236.763C219.742 236.763 225.202 237.853 227.546 237.108Z" fill="#BBBDC8"/>
<path opacity="0.1" d="M227.546 237.108C228.702 236.694 229.813 236.164 230.862 235.525L236.167 232.535C236.646 232.225 237.18 232.009 237.74 231.899L238.374 236.629C238.533 237.79 238.617 239.155 237.74 239.932C237.427 240.182 237.069 240.368 236.684 240.481C234.759 241.146 232.682 241.16 230.644 241.223C224.385 241.423 218.063 242.155 211.895 241.058C211.142 240.924 210.325 240.706 209.871 240.108C209.354 239.405 209.501 238.385 210.001 237.671C210.549 236.992 211.247 236.449 212.039 236.084C213.609 235.24 215.239 234.523 216.869 233.802C216.97 233.742 217.089 233.722 217.204 233.745C217.362 233.798 217.411 233.992 217.454 234.153C217.739 235.307 218.668 236.218 219.728 236.763C219.742 236.763 225.202 237.853 227.546 237.108Z" fill="black"/>
<path d="M220.435 243.516C221.213 244.22 222.403 244.202 223.459 244.125L228.271 243.773C232.094 243.492 236.047 243.175 239.42 241.357C239.776 241.193 240.093 240.953 240.345 240.653C240.613 240.193 240.753 239.67 240.75 239.137C241.206 233.928 242.242 228.785 243.841 223.806C245.953 217.176 249.121 210.641 249.079 203.701C249.079 203.532 249.079 203.349 249.079 203.198C249.019 201.024 248.635 198.875 248.4 196.712C248.009 193.093 248.048 189.446 248.076 185.809C248.046 184.383 248.145 182.957 248.371 181.549C248.593 180.406 249.428 179.26 248.917 178.254C247.928 176.302 244.341 175.584 242.412 175.514C239.814 175.422 237.258 176.101 234.748 176.777C233.984 176.984 233.185 177.206 232.608 177.744C231.834 178.468 231.612 179.604 231.584 180.663C231.45 185.359 234.157 189.727 234.372 194.416C234.41 195.26 234.372 196.174 234.864 196.878C235.19 197.261 235.543 197.619 235.92 197.95C236.977 199.108 237.008 200.852 236.934 202.421C236.903 203.054 236.867 203.687 236.825 204.32C236.25 212.77 234.542 221.104 231.746 229.099C231.476 229.953 231.122 230.777 230.689 231.561C229.983 232.661 229.101 233.638 228.077 234.452C226.627 235.689 225.074 236.8 223.434 237.773C222.34 238.42 221.171 239.039 220.421 240.066C219.671 241.093 219.506 242.651 220.435 243.516Z" fill="#FDA8A8"/>
<path d="M220.435 243.516C221.213 244.22 222.403 244.202 223.459 244.125L228.271 243.773C232.094 243.492 236.047 243.175 239.42 241.357C239.776 241.194 240.093 240.953 240.345 240.653C240.613 240.193 240.753 239.67 240.75 239.137C241.206 233.928 242.242 228.785 243.841 223.806C245.953 217.176 249.121 210.641 249.079 203.701C245.01 204.151 240.918 204.353 236.825 204.306C236.25 212.756 234.542 221.09 231.746 229.085C231.476 229.939 231.122 230.763 230.689 231.547C229.983 232.647 229.101 233.624 228.077 234.438C226.627 235.675 225.074 236.786 223.434 237.758C222.34 238.406 221.171 239.025 220.421 240.052C219.671 241.079 219.506 242.651 220.435 243.516Z" fill="#EEEFF3"/>
<path d="M231.066 242.032C232.222 241.618 233.333 241.088 234.382 240.449L239.687 237.459C240.167 237.149 240.701 236.933 241.261 236.823L241.894 241.554C242.053 242.714 242.137 244.079 241.261 244.856C240.948 245.106 240.589 245.292 240.205 245.405C238.279 246.07 236.202 246.084 234.164 246.147C227.905 246.348 221.583 247.079 215.415 245.982C214.662 245.848 213.845 245.63 213.391 245.032C212.874 244.329 213.022 243.309 213.522 242.595C214.069 241.916 214.767 241.373 215.56 241.008C217.13 240.164 218.76 239.447 220.389 238.726C220.49 238.666 220.609 238.646 220.724 238.669C220.882 238.722 220.932 238.916 220.974 239.077C221.259 240.231 222.188 241.142 223.248 241.687C223.262 241.687 228.722 242.778 231.066 242.032Z" fill="#BBBDC8"/>
<path d="M213.609 100.843C215.324 98.7325 215.369 95.7851 215.327 93.0768C215.327 92.0216 215.296 90.9313 215.257 89.8585V89.8339C215.209 87.8623 215.001 85.8978 214.634 83.9601C214.449 83.0302 214.202 82.1137 213.895 81.2166C214.127 81.1639 214.359 81.1146 214.599 81.0724C218.288 80.3443 222.085 80.3443 225.775 81.0724C226.412 81.199 228.025 81.1709 228.943 81.4839C229.205 81.5464 229.433 81.7061 229.581 81.9306C229.76 82.307 229.39 83.3973 229.123 84.3646C228.976 84.8005 228.893 85.2554 228.876 85.7152C228.912 86.1472 228.978 86.5762 229.074 86.999C229.239 87.7763 229.457 88.5466 229.559 89.3344C229.739 90.678 229.581 92.0462 229.669 93.4004C229.757 94.7545 230.147 96.179 231.179 97.0618C225.186 97.5752 219.282 98.8456 213.609 100.843Z" fill="#FDA8A8"/>
<path opacity="0.1" d="M230.478 86.8442C230.01 86.8829 229.546 86.9286 229.07 86.9814C224.381 87.4815 219.754 88.4477 215.257 89.8655V89.8409L214.634 83.9671C214.634 83.6154 214.634 83.2637 214.634 82.8943C214.634 82.2929 214.616 81.6844 214.602 81.0794C218.292 80.3514 222.089 80.3514 225.779 81.0794C226.416 81.2061 228.028 81.1779 228.947 81.491C228.947 82.0643 228.947 82.6376 228.968 83.2109C228.991 83.6013 229.044 83.9893 229.127 84.3716C229.295 85.3211 229.77 86.1895 230.478 86.8442Z" fill="black"/>
<path d="M221.597 88.4586C228.79 88.4586 234.622 82.6321 234.622 75.4448C234.622 68.2575 228.79 62.431 221.597 62.431C214.403 62.431 208.572 68.2575 208.572 75.4448C208.572 82.6321 214.403 88.4586 221.597 88.4586Z" fill="#FDA8A8"/>
<path d="M210.156 124.514C207.843 116.336 209.955 107.554 215.479 101.096C216.707 99.6575 217.943 98.1802 219.555 97.3185C221.474 96.2985 223.744 96.2634 225.916 96.2422C227.835 96.2422 229.813 96.2422 231.577 97.0055C233.96 98.022 235.604 100.231 236.991 102.422C238.469 104.757 239.807 107.286 240.032 110.044C240.152 111.679 239.863 113.34 240.106 114.968C240.416 117.033 241.567 118.883 242.039 120.916C242.296 122.013 242.348 123.149 242.514 124.268C242.763 125.798 243.126 127.307 243.598 128.784C247.096 140.387 251.885 151.562 257.876 162.099C259.636 165.205 261.519 168.275 262.702 171.641C263.237 173.164 263.625 174.807 263.188 176.376C262.459 178.978 259.168 180.508 256.707 179.386C256.798 179.675 256.78 179.988 256.655 180.264C256.531 180.54 256.309 180.761 256.031 180.885C255.446 181.149 254.807 181.269 254.166 181.236L232.425 181.813C231.854 181.828 231.286 181.904 230.732 182.042C228.176 182.696 229.137 183.8 228.862 184.722C228.528 185.847 226.912 185.756 225.786 185.425C225.958 187.068 225.997 189.076 223.874 189.555C223.324 189.666 222.755 189.647 222.213 189.498C218.361 188.507 214.367 188.186 210.406 188.549C208.956 188.682 207.298 188.844 206.224 187.845C205.414 187.103 205.203 185.921 205.066 184.831C202.901 167.597 207.354 150.337 210.698 133.31C211.149 131.014 210.987 127.292 210.311 125.048L210.156 124.514Z" fill="#F75842"/>
<path d="M239.022 112.636C239.532 114.106 240.169 115.552 240.342 117.1C240.479 118.338 240.314 119.59 240.388 120.831C240.523 122.21 240.807 123.57 241.236 124.887C241.914 127.448 242.75 129.966 243.739 132.424C244.211 133.532 244.756 134.753 244.376 135.896C243.996 137.039 242.817 137.746 242.479 138.882C242.127 140.081 242.831 141.344 243.728 142.22C244.626 143.095 245.749 143.718 246.58 144.65C247.484 145.667 247.988 146.964 248.625 148.167C249.53 149.758 250.567 151.27 251.726 152.687L255.982 158.206C256.247 158.603 256.596 158.939 257.003 159.19C258.411 159.922 259.886 158.448 261.319 157.783C263.22 156.88 265.444 157.411 267.546 157.562C269.648 157.713 272.179 157.168 272.928 155.205C273.177 154.409 273.229 153.564 273.08 152.743C272.75 149.937 271.938 147.208 270.679 144.678C269.912 143.138 268.975 141.664 268.493 140.014C268.099 138.674 268.021 137.264 267.708 135.903C267.395 134.542 266.842 133.24 266.398 131.911C263.251 122.463 265.617 112.126 264.6 102.222C264.223 98.5672 263.107 94.561 259.96 92.6582C258.091 91.5292 255.845 91.3533 253.624 91.2513L252.62 91.2056L251.005 91.1247C248.667 91.0086 246.323 90.9207 244.045 91.4166C240.842 92.1201 236.987 94.6068 236.86 98.1803C236.723 103.089 237.454 107.982 239.022 112.636Z" fill="#23A19A"/>
<path opacity="0.1" d="M251.022 91.1106C251.454 93.5039 251.67 95.9312 251.666 98.3632C251.73 105.306 252.48 112.221 253.233 119.115L253.729 123.687C253.821 124.531 253.93 125.418 254.433 126.097C254.937 126.775 255.993 127.131 256.658 126.607C257.066 124.992 256.985 123.297 256.904 121.633C256.728 118.095 256.554 114.555 256.38 111.015C256.211 107.568 256.028 104.117 255.609 100.692C255.28 98.0381 254.796 95.4062 254.159 92.8094C254.038 92.2715 253.869 91.7453 253.655 91.2372L252.652 91.1915L251.022 91.1106Z" fill="black"/>
<path d="M228.021 94.0862C225.863 93.7767 223.603 93.6184 221.555 94.3675C219.597 95.0886 218.034 96.5693 216.626 98.1275C215.666 99.1315 214.873 100.282 214.275 101.536C213.074 104.293 213.543 107.473 214.275 110.392C216.271 118.433 220.235 126.188 226.596 131.496C228.532 133.068 230.593 134.479 232.759 135.716C235.576 137.366 238.483 138.882 241.599 139.835C242.468 140.102 243.394 140.327 244.285 140.137C245.175 139.947 246.017 139.226 246.045 138.315C240.94 135.449 236.364 131.745 231.82 128.059C230.574 127.099 229.407 126.04 228.331 124.894C226.719 123.082 225.582 120.895 224.019 119.041C222.611 117.377 220.851 115.974 219.795 114.071C219.132 112.772 218.688 111.372 218.482 109.928C217.961 106.984 217.862 103.857 219.031 101.103C220.199 98.3491 222.878 96.0875 225.87 96.1367C227.405 96.1613 228.866 96.7698 230.281 97.3642L239.187 101.121C239.078 101.071 239.698 99.5273 239.67 99.3128C239.585 98.641 239.465 98.6304 238.966 98.1204C238.114 97.2693 236.79 96.6713 235.709 96.1754C233.26 95.1146 230.671 94.411 228.021 94.0862Z" fill="#23A19A"/>
<path d="M210.294 72.9828C212.835 72.4187 215.186 71.207 217.119 69.4655L215.257 79.2294C217.112 78.3786 218.911 77.4106 220.643 76.3312C220.893 80.7981 220.53 85.367 218.883 89.5243C217.235 93.6817 214.197 97.403 210.121 99.2495C213.74 99.8545 216.989 97.2588 220.21 95.5037C222.456 94.2832 226.293 95.5388 228.75 94.8002C230.834 94.1882 232.974 93.6536 234.854 92.5597C238.346 90.5232 239.138 84.5756 239.846 80.6011C240.553 76.6266 239.909 72.5115 238.733 68.6425C238.342 67.2723 237.812 65.9453 237.153 64.6821C236.246 63.0231 235.005 61.5702 233.507 60.415C232.01 59.2598 230.289 58.4275 228.453 57.9706C226.617 57.5138 224.707 57.4424 222.842 57.761C220.977 58.0795 219.199 58.781 217.619 59.8212C214.373 61.9562 211.364 65.0971 208.885 68.0762C208.533 68.4877 207.08 69.9509 207.562 70.5664C208.15 71.3121 211.6 69.1877 212.184 68.8992C212.015 69.5359 210.966 72.8175 210.294 72.9828Z" fill="#FFD566"/>
<g opacity="0.1">
<path opacity="0.1" d="M224.941 186.741C224.39 186.852 223.821 186.833 223.279 186.685C219.428 185.693 215.434 185.372 211.473 185.735C210.022 185.869 208.364 186.03 207.291 185.031C206.481 184.289 206.27 183.108 206.133 182.017C203.968 164.783 208.421 147.524 211.765 130.497C212.215 128.2 212.054 124.479 211.378 122.235L211.219 121.689C209.916 117.04 209.993 112.111 211.441 107.504C209.039 112.851 208.585 118.868 210.156 124.514L210.315 125.059C210.99 127.303 211.152 131.038 210.702 133.321C207.368 150.348 202.915 167.618 205.069 184.842C205.207 185.932 205.421 187.114 206.228 187.856C207.284 188.844 208.959 188.682 210.41 188.559C214.371 188.196 218.365 188.518 222.216 189.509C222.758 189.657 223.327 189.677 223.878 189.565C225.61 189.175 225.902 187.764 225.86 186.368C225.579 186.547 225.267 186.673 224.941 186.741Z" fill="black"/>
<path opacity="0.1" d="M257.77 176.573C257.861 176.862 257.843 177.174 257.718 177.45C257.594 177.727 257.372 177.948 257.095 178.071C256.509 178.335 255.87 178.455 255.229 178.423L233.488 178.999C232.917 179.014 232.349 179.09 231.795 179.228C229.239 179.882 230.2 180.987 229.926 181.908C229.591 183.034 227.975 182.942 226.849 182.612C226.955 183.614 227.007 184.75 226.553 185.594C227.542 185.742 228.605 185.612 228.87 184.722C229.134 183.832 228.183 182.696 230.739 182.042C231.293 181.904 231.861 181.828 232.432 181.813L254.159 181.236C254.8 181.269 255.439 181.149 256.024 180.885C256.301 180.761 256.523 180.541 256.648 180.264C256.773 179.988 256.791 179.675 256.7 179.386C259.164 180.508 262.452 178.978 263.181 176.376C263.291 175.981 263.352 175.575 263.364 175.166C262.047 176.741 259.664 177.445 257.77 176.573Z" fill="black"/>
</g>
<path d="M228.606 103.076C230.476 107.049 232.129 111.12 233.559 115.271C234.713 118.615 235.731 122.129 235.347 125.646C234.963 129.164 232.883 132.716 229.503 133.824C228.067 134.295 226.529 134.299 225.019 134.334C221.401 134.419 217.792 134.71 214.208 135.206C212.54 135.482 210.858 135.669 209.171 135.766C206.784 135.843 204.397 135.47 202.018 135.664C198.166 135.977 194.509 137.774 190.644 137.774C190.172 137.803 189.701 137.716 189.271 137.521C188.567 137.141 188.254 136.318 188.014 135.558C187.476 133.842 187.053 131.872 187.965 130.321C189.088 128.411 191.64 128.028 193.854 127.859C198.839 127.507 203.829 127.261 208.826 127.12C213.089 127.001 217.707 126.839 221.013 124.145C221.236 123.985 221.418 123.776 221.544 123.533C221.669 123.121 221.654 122.679 221.502 122.277C220.192 117.162 219.63 111.884 219.833 106.608C219.811 106.134 219.933 105.665 220.185 105.264C220.484 104.942 220.873 104.717 221.301 104.617C224.252 103.671 227.412 103.583 230.411 104.364" fill="#FDA8A8"/>
<path d="M219.745 106.604C219.234 106.78 218.79 107.107 218.471 107.543C218.612 106.076 218.422 104.596 218.45 103.118C218.478 101.641 218.752 100.101 219.685 98.9541C220.872 97.4909 222.889 96.9668 224.775 96.9176C227.514 96.8437 230.348 97.6386 232.354 99.5028C233.646 100.711 234.485 102.325 234.731 104.075C234.794 104.557 235.005 106.365 234.502 106.674C234.062 106.949 232.39 106.003 231.851 105.851C227.852 104.677 223.567 104.943 219.745 106.604Z" fill="#F75842"/>
<path opacity="0.1" d="M166.506 23.5655C167.867 23.5655 168.97 22.4632 168.97 21.1034C168.97 19.7437 167.867 18.6414 166.506 18.6414C165.145 18.6414 164.042 19.7437 164.042 21.1034C164.042 22.4632 165.145 23.5655 166.506 23.5655Z" fill="#23A19A"/>
<path opacity="0.1" d="M183.051 71.0483C184.411 71.0483 185.515 69.946 185.515 68.5862C185.515 67.2265 184.411 66.1241 183.051 66.1241C181.69 66.1241 180.586 67.2265 180.586 68.5862C180.586 69.946 181.69 71.0483 183.051 71.0483Z" fill="#23A19A"/>
<path opacity="0.1" d="M136.232 26.0276C137.593 26.0276 138.696 24.9253 138.696 23.5655C138.696 22.2058 137.593 21.1035 136.232 21.1035C134.871 21.1035 133.768 22.2058 133.768 23.5655C133.768 24.9253 134.871 26.0276 136.232 26.0276Z" fill="#23A19A"/>
<path opacity="0.1" d="M60.5476 142.097C64.047 142.097 66.8839 139.262 66.8839 135.766C66.8839 132.269 64.047 129.435 60.5476 129.435C57.0481 129.435 54.2112 132.269 54.2112 135.766C54.2112 139.262 57.0481 142.097 60.5476 142.097Z" fill="#23A19A"/>
<path opacity="0.1" d="M315.762 37.6345C317.123 37.6345 318.226 36.5322 318.226 35.1724C318.226 33.8126 317.123 32.7103 315.762 32.7103C314.401 32.7103 313.298 33.8126 313.298 35.1724C313.298 36.5322 314.401 37.6345 315.762 37.6345Z" fill="#23A19A"/>
<path opacity="0.1" d="M318.578 76.6759C323.05 76.6759 326.675 73.054 326.675 68.5862C326.675 64.1184 323.05 60.4966 318.578 60.4966C314.107 60.4966 310.482 64.1184 310.482 68.5862C310.482 73.054 314.107 76.6759 318.578 76.6759Z" fill="#23A19A"/>
<path opacity="0.1" d="M331.603 48.1862C332.964 48.1862 334.067 47.0839 334.067 45.7242C334.067 44.3644 332.964 43.2621 331.603 43.2621C330.242 43.2621 329.139 44.3644 329.139 45.7242C329.139 47.0839 330.242 48.1862 331.603 48.1862Z" fill="#23A19A"/>
<path opacity="0.1" d="M309.778 93.2069C311.139 93.2069 312.242 92.1046 312.242 90.7448C312.242 89.3851 311.139 88.2828 309.778 88.2828C308.417 88.2828 307.314 89.3851 307.314 90.7448C307.314 92.1046 308.417 93.2069 309.778 93.2069Z" fill="#23A19A"/>
<path opacity="0.1" d="M161.577 43.2621C162.938 43.2621 164.042 42.1598 164.042 40.8C164.042 39.4403 162.938 38.338 161.577 38.338C160.217 38.338 159.113 39.4403 159.113 40.8C159.113 42.1598 160.217 43.2621 161.577 43.2621Z" fill="#23A19A"/>
<path opacity="0.1" d="M69.3479 167.772C70.7088 167.772 71.8121 166.67 71.8121 165.31C71.8121 163.951 70.7088 162.848 69.3479 162.848C67.987 162.848 66.8838 163.951 66.8838 165.31C66.8838 166.67 67.987 167.772 69.3479 167.772Z" fill="#23A19A"/>
<path opacity="0.1" d="M65.4759 111.497C66.8368 111.497 67.94 110.394 67.94 109.034C67.94 107.675 66.8368 106.572 65.4759 106.572C64.115 106.572 63.0117 107.675 63.0117 109.034C63.0117 110.394 64.115 111.497 65.4759 111.497Z" fill="#23A19A"/>
<path opacity="0.1" d="M200.652 21.1035C202.013 21.1035 203.116 20.0012 203.116 18.6414C203.116 17.2816 202.013 16.1793 200.652 16.1793C199.291 16.1793 198.188 17.2816 198.188 18.6414C198.188 20.0012 199.291 21.1035 200.652 21.1035Z" fill="#23A19A"/>
<path opacity="0.1" d="M208.748 43.2621C210.109 43.2621 211.212 42.1598 211.212 40.8C211.212 39.4403 210.109 38.338 208.748 38.338C207.387 38.338 206.284 39.4403 206.284 40.8C206.284 42.1598 207.387 43.2621 208.748 43.2621Z" fill="#23A19A"/>
</g>
<defs>
<linearGradient id="paint0_linear" x1="135.373" y1="247.835" x2="135.373" y2="57.6828" gradientUnits="userSpaceOnUse">
<stop stop-color="#808080" stop-opacity="0.25"/>
<stop offset="0.54" stop-color="#808080" stop-opacity="0.12"/>
<stop offset="1" stop-color="#808080" stop-opacity="0.1"/>
</linearGradient>
<linearGradient id="paint1_linear" x1="63355.6" y1="149857" x2="63355.6" y2="47264.5" gradientUnits="userSpaceOnUse">
<stop stop-color="#808080" stop-opacity="0.25"/>
<stop offset="0.54" stop-color="#808080" stop-opacity="0.12"/>
<stop offset="1" stop-color="#808080" stop-opacity="0.1"/>
</linearGradient>
<clipPath id="clip0">
<rect width="380.886" height="255" fill="white"/>
</clipPath>
</defs>
</svg>
