<svg height="48" viewBox="0 0 224 48" width="224" xmlns="http://www.w3.org/2000/svg"><g fill="none" fill-rule="evenodd"><path d="m0 0h224v48h-224z"/><path d="m33.4267516 13.256966c0-.1174745.0946803-.21238.211232-.21238h4.9876471c1.4305647 0 2.678196.3137476 3.7415508.9407607 1.0634507.6267237 1.8773943 1.464863 2.4421187 2.514225.5642447 1.049362.8467508 2.2076145.8467508 3.475047 0 1.2672397-.2825061 2.4288679-.8467508 3.4848849-.5647244 1.0560169-1.378668 1.8942526-2.4421187 2.5146107-1.0633548.6202617-2.3109861.9303443-3.7415508.9303443h-4.9876471c-.1165517 0-.211232-.0951949-.211232-.2126694zm4.9033269 10.954741c.8667037 0 1.6050566-.1944406 2.2153465-.5843827.6106735-.3886883 1.0667122-.9068108 1.3689793-1.5539816.3016916-.6468815.4527772-1.3465205.4527772-2.098724 0-.7522999-.1510856-1.4520353-.4527772-2.098531-.3022671-.6465922-.7583058-1.1652933-1.3689793-1.5547532-.6102899-.3889777-1.3486428-.583997-2.2153465-.583997h-1.5019346c-.1165518 0-.2112321.0952914-.2112321.2126694v8.0490307c0 .1174746.0946803.2126694.2112321.2126694zm21.8223479 1.3936768c-.9235368-.8241899-1.4071463-1.9634885-1.4517895-3.417606-.0033101-.1207498.0927906-.2213103.214421-.2213103h2.8032265c.1129911 0 .2069562.0880025.2128775.2005413.0331014.6579416.233942 1.1795808.6027161 1.5644346.4051758.4232039.9597444.6343712 1.6639.6343712.5975713 0 1.0592427-.1319554 1.3850141-.3965424.3251891-.2642006.4879777-.64094.4879777-1.1303148 0-.423204-.1227952-.7636218-.3684828-1.0212536-.2459789-.2576318-.6872652-.512269-1.3251211-.7637184l-2.5108476-.9712149c-.9298465-.3437989-1.6340992-.8364581-2.1122727-1.4775913-.4780764-.6412298-.7176485-1.411034-.7176485-2.3103786 0-.8062223.2023937-1.517004.6080549-2.1316689.4050788-.6145682.9830416-1.0909987 1.7335973-1.4277457.7504587-.3374233 1.6241979-.5060866 2.62015-.5060866 1.0099304 0 1.8999776.1821873 2.6708213.5454993.7701641.3639882 1.3681236.8761606 1.7933932 1.5369036.3884796.6048117.5998039 1.3037116.6330023 2.0958303.0052419.121909-.0918295.2245947-.2140423.2245947h-2.8022558c-.1133794 0-.2063737-.0885821-.2131687-.2014107-.0313541-.5497498-.1955988-.9788463-.4922489-1.2859372-.3323723-.3437989-.8107399-.5155534-1.4351029-.5155534-.5177786 0-.9261578.1221988-1.2253317.3664032-.2990768.2450739-.4483726.5788263-.4483726 1.0018371 0 .3835014.1458983.7107817.4385684.981551.2920877.2710592.7833658.545596 1.4743197.8230307l2.3118514.9121924c.956347.3703638 1.6639001.8792518 2.1220769 1.5268572.458468.6478952.6876535 1.4412698.6876535 2.3797373 0 .8596421-.2125863 1.6130243-.637953 2.2609195-.4252696.6477986-1.0229379 1.14693-1.793102 1.4968146-.7708437.3505609-1.667783.5258896-2.6905268.5258896-1.7138918 0-3.055612-.4329605-4.0253549-1.2990748m23.2347658-12.5607978h2.9865201c.1260904 0 .2279566.0937588.2279566.2091762v10.633505c0 .1156074.1021767.2091762.228267.2091762h5.0691856c.1260903 0 .228267.0936639.228267.2094613v2.3893777c0 .1157973-.1021767.2091762-.228267.2091762h-8.5119293c-.1260904 0-.2279565-.0933789-.2279565-.2091762v-13.4415202c0-.1154174.1018661-.2091762.2279565-.2091762m22.8174418 0h3.012073c.080147 0 .153393.0433046.19115.1119746l4.447622 8.1116495c.10706.1950152.408918.1208477.408918-.100401v-7.9108475c0-.1171827.0973-.2123756.217373-.2123756h2.702131c.120368 0 .217373.0951929.217373.2123756v13.434832c0 .1170863-.097005.212665-.217373.212665h-3.01227c-.07995 0-.153295-.043401-.191051-.112264l-4.447918-8.1117459c-.106666-.1946294-.408622-.1204619-.408622.1006904v7.9106545c0 .1170863-.097301.212665-.217374.212665h-2.702032c-.120171 0-.217373-.0955787-.217373-.212665v-13.434832c0-.1171827.097202-.2123756.217373-.2123756m13.052277 0h8.518025c.124321 0 .225064.0951929.225064.2123756v2.1489289c0 .1174721-.100743.2126649-.225064.2126649h-5.123594c-.124321 0-.225064.0952894-.225064.2127615v2.7227867c0 .1171827.100743.212472.225064.212472h5.123594c.124321 0 .225064.0951929.225064.212665v2.0894212c0 .1175686-.100743.2123757-.225064.2123757h-5.123594c-.124321 0-.225064.0954822-.225064.2126649v2.6240253c0 .1175686.100743.2123757.225064.2123757h5.123594c.124321 0 .225064.0954822.225064.2129543v2.1487359c0 .1170863-.100743.212665-.225064.212665h-8.518025c-.124321 0-.225064-.0955787-.225064-.212665v-13.434832c0-.1171827.100743-.2123756.225064-.2123756m-61.3798042 13.6532823-4.5031577-13.5471902c-.0208383-.0634624-.0791103-.1060921-.144454-.1060921h-2.93651c-.0655323 0-.1234271.0426297-.1443597.1060921l-4.4842995 13.5471902c-.0337562.1013662.0399795.2065903.1446427.2065903h2.9397158c.0931596 0 .1748158-.0634624.2001801-.1549909l.5677272-2.0525929h4.5088151l.5676329 2.0525929c.0253643.0918179.1071147.1549909.1998972.1549909h2.9398101c.1043804 0 .1780218-.1052241.1443598-.2065903m-7.5924193-4.7769417 1.3391232-4.8405005c.0420539-.1517117.2520403-.1517117.2940942 0l1.3393118 4.8401147c.0361135.1311685-.0602521.2618546-.1938627.2618546h-2.5853696c-.1333277 0-.2296933-.1303003-.1932969-.2614688m54.8790825 4.7769417-4.503264-13.5471902c-.020838-.0634624-.079016-.1060921-.14436-.1060921h-2.9365177c-.0656268 0-.1234275.0426297-.1443601.1060921l-4.4843115 13.5471902c-.0337563.1013662.0398853.2065903.144643.2065903h2.9396294c.0931599 0 .1749106-.0634624.200275-.1549909l.5676344-2.0525929h4.5087325l.567823 2.0525929c.025176.0918179.107115.1549909.199898.1549909h2.939818c.104286 0 .177928-.1052241.14436-.2065903m-7.5924393-4.7769417 1.3391268-4.8405005c.0420539-.1517117.2520409-.1517117.2940949 0l1.3393156 4.8401147c.036113.1311685-.060252.2618546-.193863.2618546h-2.5854712c-.1333281 0-.2295996-.1303003-.1932031-.2614688m-16.2588852-8.7706752h-2.8338069c-.1198476 0-.2166098.0944671-.2166098.2107565v5.1390324c0 .1165765-.0969587.2107565-.2166099.2107565h-4.447231c-.1196512 0-.2166098-.09418-.2166098-.2107565v-5.2441235c0-.1165765-.097057-.2113308-.2165117-.2113308h-2.8338069c-.1197494 0-.2166098.0947543-.2166098.2113308v13.4374982c0 .1161936.0968604.2110436.2166098.2110436h2.8338069c.1194547 0 .2165117-.09485.2165117-.2110436v-5.0408325c0-.116098.0969586-.2105651.2166098-.2105651h4.447231c.1196512 0 .2166099.0944671.2166099.2105651v5.0408325c0 .1161936.0967622.2110436.2166098.2110436h2.8338069c.1195529 0 .2162169-.09485.2162169-.2110436v-13.3324071c0-.1162894-.096664-.2107565-.2162169-.2107565m-67.0348526.8710374 3.2940436 1.3955931c.5323177.2170738 1.1799559-.0722883 1.1799559-.5272982v-9.63229476c0-.21978585-.1601472-.42204724-.4174492-.52698534l-3.2943147-1.39559319c-.532137-.21707373-1.1799559.07228837-1.1799559.52729827v9.63187752c0 .2202031.1606895.4224645.4177203.5274026m0 16.3057511 3.2940436 1.3955767c.5323177.2170712 1.1799559-.0722875 1.1799559-.5273964v-9.6320768c0-.2200962-.1601472-.4223552-.4174492-.5269792l-3.2943147-1.3958896c-.532137-.2167583-1.1799559.0726004-1.1799559.527292v9.6320769c0 .2198876.1606895.4224595.4177203.5273964m-7.3378276-18.7480943 3.2942261 1.3922082c.5327088.2166513 1.1800213-.072113 1.1800213-.5257071v-10.45420493c0-.21935683-.160156-.42112764-.4173819-.52612339l-3.29422612-1.39189605c-.532528-.21623505-1.18011169.07242521-1.18011169.52570715v10.45399682c0 .2195649.16042723.421752.41747231.5260193m0 21.1944851 3.2942261 1.3950193c.5327088.2170888 1.1800213-.0721543 1.1800213-.5271857v-10.4482036c0-.2200083-.160156-.4222908-.4173819-.52729l-3.29422612-1.3948108c-.532528-.2169844-1.18011169.0724672-1.18011169.5270815v10.4482036c0 .2197997.16042723.4222908.41747231.5271857m-2.04804555-30.88724932c0-.20795463-.16041834-.39905607-.4177203-.49859834l-3.29404355-1.31819584c-.5324081-.20489938-1.1799559.06859546-1.1799559.49820411v30.97272369c0 .2079547.16032795.3994503.4177203.4982041l3.29395317 1.3188858c.53213697.2048008 1.18004628-.0685955 1.18004628-.4982041zm19.96445305 8.44771942-3.2940731-1.2973631c-.5323079-.2017948-1.1799341.06720028-1.1799341.49028087v14.70658373c0 .2046069.1601442.3923411.4174415.48999l3.2943442 1.29746c.5320367.2016979 1.1799341-.0673942 1.1799341-.4903778v-1.0617257-13.6445671c0-.2043161-.1606865-.392729-.4177126-.4902809" fill="#1a2035" transform="translate(48 7)"/></g></svg>